<?xml version="1.0" encoding="UTF-8"?>
<!-- Generated by Pixelmator Pro 2.4.7 -->
<svg width="200" height="200" viewBox="0 0 200 200" xmlns="http://www.w3.org/2000/svg" xmlns:xlink="http://www.w3.org/1999/xlink">
    <path id="rect2795" fill="none" stroke="none" d="M -1.118104 -0.449326 L 198.881897 -0.449326 L 198.881897 199.550674 L -1.118104 199.550674 Z"/>
    <g id="layer1">
        <path id="rect2907" fill="#ff00ff" stroke="#ff00ff" stroke-width="23.64114" stroke-linecap="round" stroke-linejoin="round" opacity="0.92" d="M 59.98111 11.820572 L 140.018997 11.820572 C 166.61734 11.820572 188.179535 33.382767 188.179535 59.98111 L 188.179535 140.01889 C 188.179535 166.617218 166.61734 188.179428 140.018997 188.179428 L 59.98111 188.179428 C 33.382778 188.179428 11.820574 166.617218 11.820574 140.01889 L 11.820574 59.98111 C 11.820574 33.382767 33.382778 11.820572 59.98111 11.820572 Z"/>
    </g>
    <g id="layer2">
        <path id="path2797" fill="#000000" stroke="none" d="M 149.481888 48.950668 L 128.881897 39.550674 L 149.481888 30.150681 L 158.881897 9.550674 L 168.281891 30.150681 L 188.881897 39.550674 L 168.281891 48.950668 L 158.881897 69.550674 Z M 158.881897 189.550674 L 168.281891 168.950668 L 188.881897 159.550674 L 168.281891 150.150665 L 158.881897 129.550674 L 149.481888 150.150665 L 128.881897 159.550674 L 149.481888 168.950668 Z M 23.881895 99.550674 C 23.881895 127.150665 46.281898 149.550674 73.881897 149.550674 C 101.481903 149.550674 123.881889 127.150665 123.881889 99.550674 C 123.881889 71.950668 101.481903 49.550674 73.881897 49.550674 C 46.281898 49.550674 23.881895 71.950668 23.881895 99.550674 Z M 73.881897 34.550674 C 109.781898 34.550674 138.881882 63.650681 138.881882 99.550674 C 138.881882 135.450684 109.781898 164.550674 73.881897 164.550674 C 37.981895 164.550674 8.881896 135.450684 8.881896 99.550674 C 8.881896 63.650681 37.981895 34.550674 73.881897 34.550674 Z M 68.279892 106.448669 L 68.279892 106.448669 L 48.881897 87.050674 L 68.279892 106.448669 L 47.652798 128.212891 L 81.381897 129.550674 L 81.381897 129.550674 L 47.652798 128.212891 Z"/>
        <text id="L" xml:space="preserve" x="51" y="125" font-family="Helvetica" font-size="93.149709" fill="#000000">L</text>
    </g>
</svg>
