<?xml version="1.0" encoding="UTF-8"?>
<!-- Generated by Pixelmator Pro 2.4.7 -->
<svg width="200" height="215" viewBox="0 0 200 215" xmlns="http://www.w3.org/2000/svg" xmlns:xlink="http://www.w3.org/1999/xlink">
    <g id="g20635">
        <path id="rect20633" fill="none" stroke="none" d="M -16.32744 -15.351578 L 229.826401 -15.351578 L 229.826401 230.362701 L -16.32744 230.362701 Z"/>
    </g>
    <g id="layer6">
        <path id="rect21006" fill="#ffcc00" stroke="#dffcc0" stroke-width="10.61037" stroke-opacity="0.058824" stroke-linecap="round" stroke-linejoin="round" opacity="0.92" d="M 81.158012 3.714005 L 132.811142 3.714005 C 174.700867 3.714005 208.659225 37.61171 208.659225 79.426651 L 208.659225 133.986893 C 208.659225 175.801834 174.700867 209.699554 132.811142 209.699554 L 81.158012 209.699554 C 39.268272 209.699554 5.309926 175.801834 5.309926 133.986893 L 5.309926 79.426651 C 5.309926 37.61171 39.268272 3.714005 81.158012 3.714005 Z"/>
    </g>
    <g id="layer7">
        <g id="g20643">
            <g id="g20641">
                <path id="path20637" fill="#000000" stroke="none" d="M 189.616043 160.800934 L 146.046829 117.309502 L 128.692978 117.309502 L 124.508377 113.132362 L 115.769905 121.855217 L 119.954521 126.032356 L 119.954521 143.355225 L 163.523743 186.846634 C 168.32373 191.638077 176.077591 191.638077 180.877594 186.846634 L 189.616043 178.123779 C 194.416061 173.332352 194.416061 165.592346 189.616043 160.800934 Z M 172.139145 178.123779 L 133.000671 139.055206 L 141.73912 130.332352 L 180.877594 169.400925 Z"/>
                <path id="path20639" fill="#000000" stroke="none" d="M 138.662201 81.558075 L 138.662201 81.558075 L 149.492981 92.369507 L 162.539124 79.346649 L 179.892975 96.669495 C 189.492981 87.086647 189.492981 71.483795 179.892975 61.900925 L 149.492981 31.555206 L 140.385284 40.646637 L 140.385284 22.340942 L 134.354523 16.320938 L 103.831436 46.78949 L 109.862213 52.809494 L 128.200684 52.809494 L 119.092979 61.900925 L 129.923752 72.712357 L 107.031441 95.686646 L 76.385292 65.218079 L 78.231445 49.738068 L 49.923752 21.235214 L 23.708368 47.403793 L 52.139137 75.783783 L 67.646835 73.940933 L 98.292984 104.4095 L 85.369904 117.309502 L 68.01606 117.309502 L 24.446829 160.800934 C 19.646832 165.592346 19.646832 173.332352 24.446829 178.123779 L 33.185291 186.846634 C 37.985287 191.638077 45.739136 191.638077 50.539135 186.846634 L 94.10836 143.355225 L 94.10836 126.032356 Z M 41.923756 178.123779 L 33.185291 169.400925 L 72.323746 130.332352 L 81.062218 139.055206 Z"/>
            </g>
        </g>
    </g>
</svg>
