<?xml version="1.0" encoding="UTF-8"?>
<!-- Generated by Pixelmator Pro 2.4.7 -->
<svg width="200" height="212" viewBox="0 0 200 212" xmlns="http://www.w3.org/2000/svg" xmlns:xlink="http://www.w3.org/1999/xlink">
    <g id="layer1">
        <path id="path855" fill="#0f824e" fill-rule="evenodd" stroke="none" d="M 122.316643 106.905708 C 122.316643 118.028931 113.243065 127.045792 102.050079 127.045792 C 90.857101 127.045792 81.783333 118.028931 81.783333 106.905708 C 81.783333 95.782875 90.857101 86.765633 102.050079 86.765633 C 113.243065 86.765633 122.316643 95.782875 122.316643 106.905708 Z"/>
        <path id="path1024" fill="none" stroke="#000000" stroke-width="5.118819" stroke-linecap="round" stroke-linejoin="round" d="M 100.980476 209.448456 C 75.112144 209.448456 54.141815 162.522186 54.141815 104.635834 C 54.141815 46.749481 75.112144 -0.177185 100.980476 -0.177185 C 126.848808 -0.177185 147.819138 46.749481 147.819138 104.635834 C 147.819138 162.522186 126.848808 209.448456 100.980476 209.448456 Z"/>
        <path id="path1024-6" fill="none" stroke="#000000" stroke-width="5.118819" stroke-linecap="round" stroke-linejoin="round" d="M 9.312367 163.612305 C -4.237674 141.714676 25.002611 99.38253 74.622421 69.060883 C 124.242226 38.739243 175.451538 31.910294 189.001572 53.807938 C 202.551605 75.705582 173.311523 118.038048 123.691734 148.35968 C 74.071922 178.68132 22.86241 185.509949 9.312367 163.612305 Z"/>
        <path id="path1024-6-5" fill="none" stroke="#000000" stroke-width="5.118819" stroke-linecap="round" stroke-linejoin="round" d="M 15.322189 44.583771 C 30.586447 23.829544 81.084648 34.695023 128.113342 68.852539 C 175.141708 103.009811 200.891769 147.524384 185.627533 168.278625 C 170.363266 189.032852 119.865059 178.167374 72.836685 144.010101 C 25.807995 109.852577 0.057934 65.338013 15.322189 44.583771 Z"/>
        <path id="path1667" fill="#ff0000" stroke="#f60000" stroke-width="6.704878" stroke-linecap="round" stroke-linejoin="round" opacity="0.92" d="M 139.914368 20.631531 C 139.914368 27.128265 134.614792 32.394714 128.077194 32.394714 C 121.539612 32.394714 116.240028 27.128265 116.240028 20.631531 C 116.240028 14.134796 121.539612 8.868347 128.077194 8.868347 C 134.614792 8.868347 139.914368 14.134796 139.914368 20.631531 Z"/>
        <path id="path1667-9" fill="#0000ff" stroke="#0000ff" stroke-width="6.704878" stroke-linecap="round" stroke-linejoin="round" opacity="0.92" d="M 198.551559 159.096527 C 198.551559 165.593262 193.251984 170.859711 186.714401 170.859711 C 180.176819 170.859711 174.877228 165.593262 174.877228 159.096527 C 174.877228 152.599808 180.176819 147.333344 186.714401 147.333344 C 193.251984 147.333344 198.551559 152.599808 198.551559 159.096527 Z"/>
        <path id="path1667-9-5" fill="#ffff00" stroke="#ffff00" stroke-width="6.704878" stroke-linecap="round" stroke-linejoin="round" opacity="0.92" d="M 27.037205 124.385437 C 27.037205 130.882156 21.737431 136.148621 15.200036 136.148621 C 8.662642 136.148621 3.363061 130.882156 3.363061 124.385437 C 3.363061 117.88871 8.662642 112.622253 15.200036 112.622253 C 21.737431 112.622253 27.037205 117.88871 27.037205 124.385437 Z"/>
    </g>
</svg>
