<?xml version="1.0" encoding="UTF-8"?>
<!-- Generated by Pixelmator Pro 2.4.7 -->
<svg width="200" height="200" viewBox="0 0 200 200" xmlns="http://www.w3.org/2000/svg" xmlns:xlink="http://www.w3.org/1999/xlink">
    <path id="path3129" fill="none" stroke="none" d="M -2.707469 -3.622009 L 197.3461 -3.622009 L 197.3461 196.377991 L -2.707469 196.377991 Z"/>
    <g id="layer3">
        <path id="rect12228" fill="#008bf7" stroke="#008bf7" stroke-width="8.525125" stroke-linecap="round" stroke-linejoin="round" opacity="0.92" d="M 100 4.262573 L 100 4.262573 C 152.874329 4.262573 195.737427 47.125671 195.737427 100 L 195.737427 100 C 195.737427 152.874329 152.874329 195.737427 100 195.737427 L 100 195.737427 C 47.125675 195.737427 4.262562 152.874329 4.262562 100 L 4.262562 100 C 4.262562 47.125671 47.125675 4.262573 100 4.262573 Z"/>
    </g>
    <g id="layer4"/>
    <g id="layer5">
        <path id="path3131" fill="#ff0000" stroke="none" visibility="hidden" d="M 155.964249 117.855659 C 135.333725 117.855659 118.454216 134.730652 118.454216 155.355667 C 118.454216 175.980652 135.333725 192.855652 155.964249 192.855652 C 176.594772 192.855652 193.474304 175.980652 193.474304 155.355667 C 193.474304 134.730652 176.594772 117.855659 155.964249 117.855659 Z M 125.956215 155.355667 C 125.956215 138.855652 139.459854 125.355659 155.964249 125.355659 C 162.716064 125.355659 169.092789 127.605652 174.344177 131.730652 L 132.332916 173.730652 C 128.206833 168.480652 125.956215 162.105652 125.956215 155.355667 Z M 155.964249 185.355652 C 149.212448 185.355652 142.835754 183.105652 137.584335 178.980652 L 179.595596 136.980652 C 183.721695 142.230652 185.97229 148.605652 185.97229 155.355667 C 185.97229 171.855652 172.468689 185.355652 155.964249 185.355652 Z"/>
        <text id="G" xml:space="preserve" x="34" y="159" font-family="Helvetica" font-size="173.08271" fill="#000000">G</text>
    </g>
</svg>
