<?xml version="1.0" encoding="UTF-8" standalone="no"?>
<svg
   enable-background="new 0 0 20 20"
   height="14.103303"
   viewBox="0 0 5.794998 5.8763762"
   width="13.907995"
   fill="#000000"
   version="1.1"
   id="svg20645"
   sodipodi:docname="macro.svg"
   inkscape:version="1.1.1 (c3084ef, 2021-09-22)"
   xmlns:inkscape="http://www.inkscape.org/namespaces/inkscape"
   xmlns:sodipodi="http://sodipodi.sourceforge.net/DTD/sodipodi-0.dtd"
   xmlns="http://www.w3.org/2000/svg"
   xmlns:svg="http://www.w3.org/2000/svg">
  <defs
     id="defs20649" />
  <sodipodi:namedview
     id="namedview20647"
     pagecolor="#505050"
     bordercolor="#ffffff"
     borderopacity="1"
     inkscape:pageshadow="0"
     inkscape:pageopacity="0"
     inkscape:pagecheckerboard="1"
     showgrid="false"
     inkscape:zoom="18.1875"
     inkscape:cx="14.43299"
     inkscape:cy="24.109966"
     inkscape:window-width="1922"
     inkscape:window-height="1081"
     inkscape:window-x="1709"
     inkscape:window-y="149"
     inkscape:window-maximized="0"
     inkscape:current-layer="layer6" />
  <g
     id="g20635"
     transform="matrix(0.33333333,0,0,0.33333333,-0.44220151,-0.373473)">
    <rect
       fill="none"
       height="20"
       width="20"
       x="0"
       id="rect20633"
       y="0" />
  </g>
  <g
     inkscape:groupmode="layer"
     id="layer6"
     inkscape:label="back"
     transform="translate(-0.44220151,-0.373473)">
    <rect
       style="opacity:0.92;fill:#ffcc00;fill-opacity:1;stroke:#dffcc0;stroke-width:0.287621;stroke-opacity:0.05882353"
       id="rect21006"
       width="5.5073771"
       height="5.5887551"
       x="0.58601201"
       y="0.5172835"
       ry="2.0542192" />
  </g>
  <g
     inkscape:groupmode="layer"
     id="layer7"
     inkscape:label="forward"
     transform="translate(-0.44220151,-0.373473)">
    <g
       id="g20643"
       transform="matrix(0.33333333,0,0,0.33333333,0.0076365,-0.08400153)">
      <g
         id="g20641">
        <path
           d="m 16.71,14.59 -3.54,-3.54 h -1.41 l -0.34,-0.34 -0.71,0.71 0.34,0.34 v 1.41 l 3.54,3.54 c 0.39,0.39 1.02,0.39 1.41,0 L 16.71,16 c 0.39,-0.39 0.39,-1.02 0,-1.41 z M 15.29,16 12.11,12.82 12.82,12.11 16,15.29 Z"
           id="path20637" />
        <path
           d="m 12.57,8.14 v 0 l 0.88,0.88 1.06,-1.06 1.41,1.41 c 0.78,-0.78 0.78,-2.05 0,-2.83 L 13.45,4.07 12.71,4.81 V 3.32 L 12.22,2.83 9.74,5.31 10.23,5.8 h 1.49 L 10.98,6.54 11.86,7.42 10,9.29 7.51,6.81 7.66,5.55 5.36,3.23 3.23,5.36 5.54,7.67 6.8,7.52 9.29,10 8.24,11.05 H 6.83 L 3.29,14.59 C 2.9,14.98 2.9,15.61 3.29,16 L 4,16.71 c 0.39,0.39 1.02,0.39 1.41,0 L 8.95,13.17 V 11.76 Z M 4.71,16 4,15.29 7.18,12.11 7.89,12.82 Z"
           id="path20639" />
      </g>
    </g>
  </g>
</svg>
