<?xml version="1.0" encoding="UTF-8"?>
<!-- Generated by Pixelmator Pro 2.4.7 -->
<svg width="200" height="200" viewBox="0 0 200 200" xmlns="http://www.w3.org/2000/svg" xmlns:xlink="http://www.w3.org/1999/xlink">
    <path id="path3129" fill="none" stroke="none" d="M -2.88797 -6.530151 L 210.502502 -6.530151 L 210.502502 206.803192 L -2.88797 206.803192 Z"/>
    <g id="layer3">
        <path id="rect12228" fill="#00ffff" stroke="#00ffff" stroke-width="8.638786" stroke-linecap="round" stroke-linejoin="round" opacity="0.92" d="M 101.333336 1.652725 L 101.333336 1.652725 C 154.912659 1.652725 198.347275 45.087341 198.347275 98.666664 L 198.347275 98.666664 C 198.347275 152.245987 154.912659 195.680618 101.333336 195.680618 L 101.333336 195.680618 C 47.754013 195.680618 4.319393 152.245987 4.319393 98.666664 L 4.319393 98.666664 C 4.319393 45.087341 47.754013 1.652725 101.333336 1.652725 Z"/>
    </g>
    <path id="Ellipse" fill="#ed230d" fill-rule="evenodd" stroke="#ed230d" stroke-width="8.525125" stroke-linecap="round" stroke-linejoin="round" d="M 178 98.5 C 178 55.145645 143.302063 20 100.5 20 C 57.697933 20 23 55.145645 23 98.5 C 23 141.854355 57.697933 177 100.5 177 C 143.302063 177 178 141.854355 178 98.5 Z"/>
    <g id="layer5">
        <text id="M" xml:space="preserve" x="41" y="141" font-family="Helvetica" font-size="142.222667" fill="#000000">M</text>
    </g>
</svg>
