<?xml version="1.0" encoding="UTF-8" standalone="no"?>
<!-- Created with Inkscape (http://www.inkscape.org/) -->

<svg
   width="105.183"
   height="105.183"
   id="svg2"
   version="1.1"
   inkscape:version="1.1.1 (c3084ef, 2021-09-22)"
   sodipodi:docname="pluginIcon2.svg"
   inkscape:export-xdpi="31.9"
   inkscape:export-ydpi="31.9"
   xmlns:inkscape="http://www.inkscape.org/namespaces/inkscape"
   xmlns:sodipodi="http://sodipodi.sourceforge.net/DTD/sodipodi-0.dtd"
   xmlns="http://www.w3.org/2000/svg"
   xmlns:svg="http://www.w3.org/2000/svg"
   xmlns:rdf="http://www.w3.org/1999/02/22-rdf-syntax-ns#"
   xmlns:cc="http://creativecommons.org/ns#"
   xmlns:dc="http://purl.org/dc/elements/1.1/">
  <defs
     id="defs4" />
  <sodipodi:namedview
     id="base"
     pagecolor="#ffffff"
     bordercolor="#666666"
     borderopacity="1.0"
     inkscape:pageopacity="0.0"
     inkscape:pageshadow="2"
     inkscape:zoom="2"
     inkscape:cx="178.25"
     inkscape:cy="108.75"
     inkscape:document-units="px"
     inkscape:current-layer="g3090"
     showgrid="true"
     inkscape:window-width="1944"
     inkscape:window-height="1081"
     inkscape:window-x="935"
     inkscape:window-y="25"
     inkscape:window-maximized="0"
     inkscape:snap-global="false"
     width="256px"
     inkscape:pagecheckerboard="1">
    <inkscape:grid
       type="xygrid"
       id="grid3063"
       empspacing="5"
       visible="true"
       enabled="true"
       snapvisiblegridlinesonly="true"
       originx="298.21997"
       originy="-1.9555675" />
  </sodipodi:namedview>
  <metadata
     id="metadata7">
    <rdf:RDF>
      <cc:Work
         rdf:about="">
        <dc:format>image/svg+xml</dc:format>
        <dc:type
           rdf:resource="http://purl.org/dc/dcmitype/StillImage" />
      </cc:Work>
    </rdf:RDF>
  </metadata>
  <g
     inkscape:label="Layer 1"
     inkscape:groupmode="layer"
     id="layer1"
     transform="translate(298.21996,-798.31777)">
    <g
       id="g3090"
       transform="matrix(0.33695652,0,0,0.33695652,3.197619,738.02709)">
      <circle
         id="path2994"
         style="fill:#000000;fill-opacity:1;stroke:#0f824e;stroke-width:15.3818;stroke-miterlimit:4;stroke-dasharray:none;stroke-opacity:1"
         cx="-738.4516"
         cy="335.00519"
         r="148.3871" />
      <path
          fill="#0f824e"
         id="path3027"
         d="m -687.54647,253.13206 c -5e-4,0 -0.2025,0.0466 -0.23437,0.0703 -0.0318,0.0237 -0.0352,0.0344 -0.0468,0.0469 -0.0231,0.0251 -0.0362,0.0397 -0.0468,0.0547 -0.0214,0.03 -0.0257,0.0587 -0.0469,0.0937 -0.0425,0.0702 -0.0954,0.18046 -0.16406,0.30468 -0.13732,0.24847 -0.3428,0.59337 -0.59375,1.07032 -0.50191,0.9539 -1.23793,2.37317 -2.16407,4.17968 -1.85228,3.61303 -4.50805,8.82743 -7.76562,15.27345 -6.51515,12.89203 -15.44742,30.66694 -25.22656,50.22656 -9.7793,19.55993 -18.54455,37.2854 -24.8125,50.07031 -3.13398,6.39246 -5.65418,11.55845 -7.34375,15.10157 -0.84479,1.77155 -1.48421,3.12113 -1.89844,4.03905 -0.20712,0.45895 -0.35952,0.81147 -0.45312,1.04688 -0.0468,0.1177 -0.0711,0.19904 -0.0937,0.28125 -0.0113,0.0411 -0.0303,0.0802 -0.0234,0.19532 0.002,0.0288 0.002,0.0617 0.0234,0.11718 0.0217,0.0555 0.16293,0.18684 0.16406,0.1875 10e-4,0 0.19818,0.0593 0.26562,0.0469 0.0675,-0.0125 0.11292,-0.0301 0.14063,-0.0469 0.0753,-0.0456 0.15842,-0.10019 0.3125,-0.21093 0.15407,-0.11076 0.3517,-0.25863 0.61719,-0.45313 0.53095,-0.38897 1.28288,-0.96481 2.22656,-1.66407 1.88735,-1.39851 4.54218,-3.37465 7.78906,-5.79687 6.49375,-4.84441 15.33179,-11.43078 24.91406,-18.61718 l 34.60938,-25.98438 34.46093,25.98438 c 9.54168,7.18895 18.32204,13.79618 24.78907,18.64062 3.23351,2.42221 5.89352,4.39897 7.77343,5.79688 0.93996,0.69895 1.69749,1.25205 2.22657,1.64062 0.26454,0.19427 0.46346,0.34255 0.61718,0.45313 0.15373,0.11057 0.23311,0.1636 0.3125,0.21093 0.0282,0.0168 0.0723,0.035 0.14063,0.0469 0.0683,0.0118 0.26449,-0.0462 0.26562,-0.0469 5e-4,0 0.14293,-0.13264 0.16407,-0.1875 0.0211,-0.0549 0.0217,-0.0886 0.0234,-0.11718 0.007,-0.11439 -0.0122,-0.13067 -0.0234,-0.17188 -0.0226,-0.0824 -0.047,-0.16335 -0.0937,-0.28125 -0.0936,-0.23579 -0.24601,-0.58759 -0.45313,-1.04687 -0.41424,-0.91856 -1.05365,-2.29038 -1.89844,-4.0625 -1.68958,-3.54425 -4.20977,-8.70826 -7.34375,-15.10157 -6.26795,-12.78661 -15.0332,-30.51037 -24.8125,-50.07031 -9.77914,-19.55962 -18.71141,-37.33453 -25.22656,-50.22656 -3.25757,-6.44602 -5.91334,-11.66041 -7.76562,-15.27344 -0.92614,-1.80652 -1.66216,-3.22579 -2.16407,-4.17969 -0.25095,-0.47695 -0.45643,-0.82185 -0.59375,-1.07031 -0.0686,-0.12423 -0.1216,-0.23457 -0.16406,-0.30469 -0.0212,-0.035 -0.0255,-0.0637 -0.0469,-0.0937 -0.0106,-0.0149 -0.0237,-0.0296 -0.0468,-0.0547 -0.0116,-0.0126 -0.015,-0.0231 -0.0469,-0.0469 -0.0318,-0.0237 -0.24137,-0.0703 -0.24219,-0.0703 z m 0.17188,45.8125 10.44531,17.57812 c 5.91628,9.9682 11.67867,19.70368 12.80469,21.63282 l 1.53906,2.64062 -11.92187,-4.10937 -12.89063,-4.46875 -0.125,-0.0234 -0.11719,0.0234 -13.03906,4.5625 c -5.87634,2.05047 -9.09871,3.13879 -10.6875,3.51562 -0.3972,0.0942 -0.68846,0.15367 -0.875,0.16407 -0.07,0.004 -0.0365,0.005 -0.0703,0 0.0347,-0.0782 0.0761,-0.14385 0.16406,-0.28125 0.32114,-0.50155 1.92248,-3.16075 4.29688,-7.10157 2.37439,-3.94082 5.51232,-9.1493 8.8125,-14.65625 z"
         style="color:#000000;font-style:normal;font-variant:normal;font-weight:normal;font-stretch:normal;font-size:medium;line-height:normal;font-family:Sans;-inkscape-font-specification:Sans;text-indent:0;text-align:start;text-decoration:none;text-decoration-line:none;letter-spacing:normal;word-spacing:normal;text-transform:none;writing-mode:lr-tb;direction:ltr;baseline-shift:baseline;text-anchor:start;display:inline;overflow:visible;visibility:visible;fill:#0f824e;fill-opacity:1;fill-rule:nonzero;stroke:none;stroke-width:0.25;marker:none;enable-background:accumulate"
         inkscape:connector-curvature="0" />
      <path
         fill="#0f824e"
         fill-rule="evenodd"
         d="m -842.46976,303.77389 c 0,3.29758 1.45567,6.32878 3.75578,7.82396 l 2.50921,1.60779 c 1.95429,1.25963 4.03726,1.12649 5.79853,0.10095 V 298.8159 288.45226 273.96157 c -1.76127,-1.03418 -3.84424,-1.15723 -5.79853,0.10095 l -2.50921,1.60779 c -2.30011,1.48487 -3.75578,4.51617 -3.75578,7.82396 v 4.95653 10.36364 z m 24.12703,82.02858 c -15.19198,0 -32.3463,-22.30434 -32.16937,-40.96303 v -20.48163 c 0,-14.55205 4.55196,-20.48151 8.04234,-20.48151 v -20.48152 c -8.84657,0 -16.08468,21.29057 -16.08468,40.96303 v 20.48163 c 0,27.98793 20.91009,51.20384 40.21171,51.20384 h 40.21175 v -10.24081 z m 34.85018,-133.13002 v 81.92617 h -25.70603 c -9.48997,0 -17.18648,-11.01902 -17.18648,-24.61878 v -32.69881 c 0,-13.58955 7.69651,-24.60858 17.18648,-24.60858 z m 9.38274,71.68536 h 28.14822 v -10.75274 h -28.14822 z m 0,-48.98496 h 28.14822 v -10.75286 h -28.14822 z"
         id="path886"
         style="fill:#0f824e;fill-opacity:1;stroke-width:10.5878" />
    </g>
  </g>
</svg>
