<?xml version="1.0" encoding="UTF-8" standalone="no"?>
<!-- Created with Inkscape (http://www.inkscape.org/) -->

<svg
   width="4.2333341mm"
   height="4.2333393mm"
   viewBox="0 0 4.2333341 4.2333393"
   version="1.1"
   id="svg950"
   inkscape:version="1.1.1 (c3084ef, 2021-09-22)"
   sodipodi:docname="avail-library.svg"
   xmlns:inkscape="http://www.inkscape.org/namespaces/inkscape"
   xmlns:sodipodi="http://sodipodi.sourceforge.net/DTD/sodipodi-0.dtd"
   xmlns="http://www.w3.org/2000/svg"
   xmlns:svg="http://www.w3.org/2000/svg">
  <sodipodi:namedview
     id="namedview952"
     pagecolor="#505050"
     bordercolor="#ffffff"
     borderopacity="1"
     inkscape:pageshadow="0"
     inkscape:pageopacity="0"
     inkscape:pagecheckerboard="1"
     inkscape:document-units="mm"
     showgrid="false"
     inkscape:zoom="44.062494"
     inkscape:cx="8.000001"
     inkscape:cy="8.000001"
     inkscape:window-width="1486"
     inkscape:window-height="1147"
     inkscape:window-x="2440"
     inkscape:window-y="210"
     inkscape:window-maximized="0"
     inkscape:current-layer="layer1" />
  <defs
     id="defs947" />
  <g
     inkscape:label="Layer 1"
     inkscape:groupmode="layer"
     id="layer1"
     transform="translate(-30.410833,-65.943326)">
    <rect
       style="opacity:0.92;fill:#999999;stroke:#999999;stroke-width:0.23557;stroke-opacity:1"
       id="rect1033"
       width="3.997762"
       height="0.44419551"
       x="30.528618"
       y="66.50531" />
    <rect
       style="opacity:0.92;fill:#999999;stroke:#999999;stroke-width:0.23557;stroke-opacity:1"
       id="rect1033-62"
       width="3.997762"
       height="0.44419551"
       x="30.528618"
       y="69.170486" />
    <rect
       style="opacity:0.92;fill:#999999;stroke:#999999;stroke-width:0.23557;stroke-opacity:1"
       id="rect1033-62-5"
       width="3.997762"
       height="0.44419551"
       x="30.528618"
       y="68.282097" />
    <rect
       style="opacity:0.92;fill:#999999;stroke:#999999;stroke-width:0.23557;stroke-opacity:1"
       id="rect1033-62-8-1"
       width="3.997762"
       height="0.44419551"
       x="30.528618"
       y="67.393707" />
    <rect
       style="opacity:0.92;fill:#0f824e;fill-opacity:1;stroke:#0f824e;stroke-width:0.23557;stroke-opacity:1"
       id="rect1033-5"
       width="3.997762"
       height="0.44419551"
       x="30.52862"
       y="66.061111"
       ry="0.11408985" />
    <rect
       style="opacity:0.92;fill:#0f824e;fill-opacity:1;stroke:#0f824e;stroke-width:0.23557;stroke-opacity:1"
       id="rect1033-5-8"
       width="3.997762"
       height="0.44419551"
       x="30.528618"
       y="66.949509"
       ry="0.15011822" />
    <rect
       style="opacity:0.92;fill:#0f824e;fill-opacity:1;stroke:#0f824e;stroke-width:0.23557;stroke-opacity:1"
       id="rect1033-5-8-70"
       width="3.997762"
       height="0.44419551"
       x="30.528618"
       y="69.614685"
       ry="0.1861466" />
    <rect
       style="opacity:0.92;fill:#0f824e;fill-opacity:1;stroke:#0f824e;stroke-width:0.23557;stroke-opacity:1"
       id="rect1033-5-8-70-4"
       width="3.997762"
       height="0.44419551"
       x="30.52862"
       y="67.837898"
       ry="0.10808512" />
    <rect
       style="opacity:0.92;fill:#0f824e;fill-opacity:1;stroke:#0f824e;stroke-width:0.23557;stroke-opacity:1"
       id="rect1033-5-8-70-4-7"
       width="3.997762"
       height="0.44419551"
       x="30.528618"
       y="68.726288"
       ry="0.13210404" />
    <path
       id="path3027"
       d="m 32.55521,66.016511 c -1.7e-5,0 -0.0047,0.0013 -0.0054,0.002 -7.13e-4,7.13e-4 -8.02e-4,9.72e-4 -0.0011,0.0013 -5.35e-4,7.13e-4 -8.03e-4,0.0011 -0.0011,0.0016 -5.35e-4,8.92e-4 -6.24e-4,0.0017 -0.0011,0.0027 -9.81e-4,0.002 -0.0022,0.0051 -0.0038,0.0086 -0.0032,0.0071 -0.0079,0.01685 -0.01366,0.03039 -0.01155,0.02709 -0.02848,0.06739 -0.04979,0.118687 -0.04262,0.102596 -0.103718,0.250664 -0.178666,0.433706 -0.149896,0.366083 -0.355402,0.87082 -0.580394,1.426236 -0.224994,0.555424 -0.426659,1.058759 -0.570867,1.4218 -0.0721,0.18152 -0.130087,0.328214 -0.16896,0.428824 -0.01944,0.05031 -0.03415,0.08863 -0.04368,0.114694 -0.0048,0.01303 -0.0083,0.02304 -0.01042,0.02973 -0.0011,0.0033 -0.0016,0.0057 -0.0022,0.008 -2.67e-4,0.0012 -7.13e-4,0.0023 -5.35e-4,0.0055 4.1e-5,8.02e-4 4.1e-5,0.0017 5.35e-4,0.0033 5.35e-4,0.0016 0.0037,0.0053 0.0038,0.0053 2.9e-5,0 0.0046,0.0017 0.0061,0.0013 0.0016,-3.57e-4 0.0026,-8.92e-4 0.0032,-0.0013 0.0017,-0.0013 0.0036,-0.0028 0.0072,-0.006 0.0035,-0.0031 0.0081,-0.0073 0.0142,-0.01287 0.01222,-0.01105 0.02952,-0.0274 0.05123,-0.04725 0.04342,-0.03971 0.104503,-0.09583 0.179205,-0.164608 0.149404,-0.137562 0.352742,-0.324589 0.573204,-0.528655 l 0.796267,-0.737853 0.792851,0.737853 c 0.219528,0.204138 0.421539,0.391757 0.570328,0.52932 0.07439,0.06878 0.135594,0.124914 0.178845,0.164609 0.02163,0.01985 0.03906,0.03555 0.05123,0.04659 0.0061,0.0055 0.01066,0.0097 0.0142,0.01287 0.0035,0.0031 0.0054,0.0046 0.0072,0.006 6.24e-4,4.45e-4 0.0017,9.98e-4 0.0032,0.0013 0.0016,3.57e-4 0.0061,-0.0013 0.0061,-0.0013 1.8e-5,0 0.0033,-0.0038 0.0038,-0.0053 4.46e-4,-0.0016 5.35e-4,-0.0025 5.35e-4,-0.0033 1.79e-4,-0.0032 -2.67e-4,-0.0037 -5.35e-4,-0.0049 -5.35e-4,-0.0023 -0.0011,-0.0046 -0.0022,-0.008 -0.0022,-0.0067 -0.0057,-0.01669 -0.01043,-0.02973 -0.0095,-0.02608 -0.02424,-0.06504 -0.04368,-0.115359 -0.03887,-0.100642 -0.09686,-0.24728 -0.168959,-0.428825 -0.144209,-0.36309 -0.345872,-0.866374 -0.570867,-1.421799 -0.224991,-0.555416 -0.430499,-1.060154 -0.580394,-1.426237 -0.07495,-0.183042 -0.13605,-0.33111 -0.178666,-0.433705 -0.02131,-0.0513 -0.03824,-0.0916 -0.04979,-0.118687 -0.0058,-0.01354 -0.0105,-0.02334 -0.01366,-0.03039 -0.0016,-0.0035 -0.0028,-0.0067 -0.0038,-0.0086 -4.46e-4,-9.99e-4 -6.24e-4,-0.0018 -0.0011,-0.0027 -2.67e-4,-4.46e-4 -5.35e-4,-8.02e-4 -0.0011,-0.0016 -2.67e-4,-3.57e-4 -3.56e-4,-6.24e-4 -0.0011,-0.0013 -7.14e-4,-7.13e-4 -0.0056,-0.002 -0.0056,-0.002 z m 0.004,1.300894 0.240318,0.499149 c 0.136117,0.283058 0.268694,0.559507 0.2946,0.614287 l 0.03541,0.07498 -0.274289,-0.116689 -0.296578,-0.126896 -0.0029,-6.24e-4 -0.0027,6.24e-4 -0.299993,0.129558 c -0.135199,0.05823 -0.209337,0.08913 -0.24589,0.09983 -0.0091,0.0027 -0.01584,0.0044 -0.02013,0.0047 -0.0016,9e-5 -8.03e-4,1.79e-4 -0.0016,0 8.03e-4,-0.0022 0.0017,-0.0041 0.0038,-0.008 0.0074,-0.01424 0.04423,-0.08975 0.09886,-0.201656 0.05463,-0.111904 0.126824,-0.259804 0.202752,-0.41618 z"
       style="color:#000000;font-style:normal;font-variant:normal;font-weight:normal;font-stretch:normal;font-size:medium;line-height:normal;font-family:Sans;-inkscape-font-specification:Sans;text-indent:0;text-align:start;text-decoration:none;text-decoration-line:none;letter-spacing:normal;word-spacing:normal;text-transform:none;writing-mode:lr-tb;direction:ltr;baseline-shift:baseline;text-anchor:start;display:inline;overflow:visible;visibility:visible;fill-opacity:1;fill-rule:nonzero;stroke:none;stroke-width:0.00639;marker:none;enable-background:accumulate"
       inkscape:connector-curvature="0" />
  </g>
</svg>
