<?xml version="1.0" encoding="UTF-8" standalone="no"?>
<!-- Created with Inkscape (http://www.inkscape.org/) -->

<svg
   width="248"
   height="200.93625"
   id="svg2"
   version="1.1"
   inkscape:version="1.1.1 (c3084ef, 2021-09-22)"
   sodipodi:docname="AvailLogo.svg"
   inkscape:export-xdpi="31.9"
   inkscape:export-ydpi="31.9"
   xmlns:inkscape="http://www.inkscape.org/namespaces/inkscape"
   xmlns:sodipodi="http://sodipodi.sourceforge.net/DTD/sodipodi-0.dtd"
   xmlns="http://www.w3.org/2000/svg"
   xmlns:svg="http://www.w3.org/2000/svg"
   xmlns:rdf="http://www.w3.org/1999/02/22-rdf-syntax-ns#"
   xmlns:cc="http://creativecommons.org/ns#"
   xmlns:dc="http://purl.org/dc/elements/1.1/">
  <defs
     id="defs4" />
  <sodipodi:namedview
     id="base"
     pagecolor="#ffffff"
     bordercolor="#666666"
     borderopacity="1.0"
     inkscape:pageopacity="0.0"
     inkscape:pageshadow="2"
     inkscape:zoom="2"
     inkscape:cx="385.75"
     inkscape:cy="136.25"
     inkscape:document-units="px"
     inkscape:current-layer="g3090"
     showgrid="true"
     inkscape:window-width="3440"
     inkscape:window-height="1387"
     inkscape:window-x="935"
     inkscape:window-y="25"
     inkscape:window-maximized="1"
     inkscape:snap-global="false"
     width="256px"
     inkscape:pagecheckerboard="1">
    <inkscape:grid
       type="xygrid"
       id="grid3063"
       empspacing="5"
       visible="true"
       enabled="true"
       snapvisiblegridlinesonly="true"
       originx="295.62846"
       originy="-1.459386" />
  </sodipodi:namedview>
  <metadata
     id="metadata7">
    <rdf:RDF>
      <cc:Work
         rdf:about="">
        <dc:format>image/svg+xml</dc:format>
        <dc:type
           rdf:resource="http://purl.org/dc/dcmitype/StillImage" />
      </cc:Work>
    </rdf:RDF>
  </metadata>
  <g
     inkscape:label="Layer 1"
     inkscape:groupmode="layer"
     id="layer1"
     transform="translate(295.62846,-797.82159)">
    <g
       id="g3090"
       transform="matrix(0.33695652,0,0,0.33695652,3.197619,738.02709)">
      <ellipse
         id="path2994"
         style="fill:#0f824e;fill-opacity:1;stroke-width:2.5;stroke-miterlimit:4;stroke-dasharray:none"
         cx="-518.83868"
         cy="484.78156"
         rx="368"
         ry="289" />
      <path
         id="path3027"
         d="m -518.55243,177.45464 c -0.003,0 -0.81001,0.18641 -0.9375,0.28125 -0.12738,0.0948 -0.14099,0.13734 -0.1875,0.1875 -0.0927,0.10063 -0.14494,0.15887 -0.1875,0.21875 -0.0854,0.12008 -0.10269,0.23486 -0.1875,0.375 -0.16994,0.2806 -0.38163,0.72184 -0.65625,1.21875 -0.54927,0.99385 -1.3712,2.37345 -2.375,4.28125 -2.00762,3.81563 -4.95171,9.4927 -8.65625,16.71875 -7.40913,14.45211 -18.03222,35.30966 -31.0625,61.09375 -26.06059,51.56816 -61.78969,122.66778 -100.90625,200.90625 -39.11717,78.23972 -74.1782,149.14159 -99.24999,200.28125 -12.53591,25.56981 -22.61673,46.23379 -29.375,60.40625 -3.37914,7.08624 -5.93682,12.48454 -7.59375,16.15625 -0.82848,1.83578 -1.4381,3.24586 -1.8125,4.1875 -0.18721,0.47082 -0.28459,0.79615 -0.375,1.125 -0.0451,0.16447 -0.12111,0.32069 -0.0937,0.78125 0.007,0.11522 0.007,0.24668 0.0937,0.46875 0.0865,0.22192 0.65172,0.74734 0.65625,0.75 0.005,0 0.79272,0.23736 1.0625,0.1875 0.26977,-0.0502 0.45166,-0.12031 0.5625,-0.1875 0.30123,-0.1824 0.63368,-0.40074 1.25,-0.84375 0.6163,-0.443 1.40682,-1.03448 2.46875,-1.8125 2.12383,-1.55587 5.13153,-3.85922 8.90625,-6.65625 7.54942,-5.59405 18.16873,-13.49864 31.15625,-23.1875 25.975,-19.37764 61.32716,-45.72313 99.65624,-74.46875 l 138.4375,-103.9375 137.84375,103.9375 c 38.16671,28.75583 73.28815,55.18476 99.15625,74.5625 12.93404,9.68884 23.5741,17.59588 31.09375,23.1875 3.75981,2.79582 6.78995,5.00823 8.90625,6.5625 1.05816,0.7771 1.85385,1.37018 2.46875,1.8125 0.61489,0.44232 0.93241,0.65444 1.25,0.84375 0.11278,0.0669 0.2892,0.14008 0.5625,0.1875 0.27329,0.0471 1.05796,-0.18476 1.0625,-0.1875 0.003,0 0.57171,-0.53058 0.65625,-0.75 0.0845,-0.21948 0.0871,-0.35437 0.0937,-0.46875 0.0274,-0.45752 -0.0489,-0.52265 -0.0937,-0.6875 -0.0903,-0.32968 -0.18774,-0.65342 -0.375,-1.125 -0.37447,-0.94316 -0.98401,-2.35035 -1.8125,-4.1875 -1.65698,-3.67422 -4.21461,-9.16148 -7.59375,-16.25 -6.75832,-14.17696 -16.83911,-34.83302 -29.375,-60.40625 -25.07182,-51.14645 -60.1328,-122.0415 -99.25,-200.28125 -39.11657,-78.23847 -74.84567,-149.33809 -100.90625,-200.90625 -13.0303,-25.78409 -23.65338,-46.64164 -31.0625,-61.09375 -3.70455,-7.22605 -6.64864,-12.90312 -8.65625,-16.71875 -1.0038,-1.9078 -1.82574,-3.2874 -2.375,-4.28125 -0.27452,-0.49691 -0.48641,-0.93824 -0.65625,-1.21875 -0.0848,-0.14014 -0.10208,-0.25492 -0.1875,-0.375 -0.0426,-0.0598 -0.0948,-0.11815 -0.1875,-0.21875 -0.0465,-0.0502 -0.0601,-0.0926 -0.1875,-0.1875 -0.12738,-0.0948 -0.96548,-0.28125 -0.96875,-0.28125 z m 0.6875,183.25 41.78125,70.3125 c 23.66512,39.87279 46.71468,78.81473 51.21875,86.53125 l 6.15625,10.5625 -47.6875,-16.4375 -51.5625,-17.875 -0.5,-0.0937 -0.46875,0.0937 -52.15625,18.25 c -23.50535,8.20189 -36.39483,12.55518 -42.75,14.0625 -1.5888,0.37683 -2.75384,0.61466 -3.5,0.65625 -0.27999,0.0152 -0.14597,0.0213 -0.28125,0 0.13862,-0.31267 0.3043,-0.57537 0.65625,-1.125 1.28455,-2.00616 7.68993,-12.64297 17.1875,-28.40625 9.49757,-15.76329 22.04931,-36.59719 35.25,-58.625 z"
         style="color:#000000;font-style:normal;font-variant:normal;font-weight:normal;font-stretch:normal;font-size:medium;line-height:normal;font-family:Sans;-inkscape-font-specification:Sans;text-indent:0;text-align:start;text-decoration:none;text-decoration-line:none;letter-spacing:normal;word-spacing:normal;text-transform:none;writing-mode:lr-tb;direction:ltr;baseline-shift:baseline;text-anchor:start;display:inline;overflow:visible;visibility:visible;fill-opacity:1;fill-rule:nonzero;stroke:none;stroke-width:1;marker:none;enable-background:accumulate"
         inkscape:connector-curvature="0" />
    </g>
  </g>
</svg>
