<?xml version="1.0" encoding="UTF-8" standalone="no"?>
<svg
   width="16"
   height="16"
   version="1.1"
   viewBox="0 0 16 16"
   id="svg11637"
   sodipodi:docname="avail-file-dirty.svg"
   inkscape:version="1.1.1 (c3084ef, 2021-09-22)"
   xmlns:inkscape="http://www.inkscape.org/namespaces/inkscape"
   xmlns:sodipodi="http://sodipodi.sourceforge.net/DTD/sodipodi-0.dtd"
   xmlns="http://www.w3.org/2000/svg"
   xmlns:svg="http://www.w3.org/2000/svg">
  <defs
     id="defs11641" />
  <sodipodi:namedview
     id="namedview11639"
     pagecolor="#505050"
     bordercolor="#ffffff"
     borderopacity="1"
     inkscape:pageshadow="0"
     inkscape:pageopacity="0"
     inkscape:pagecheckerboard="1"
     showgrid="false"
     inkscape:zoom="56.0625"
     inkscape:cx="4.3790412"
     inkscape:cy="8.2140468"
     inkscape:window-width="1902"
     inkscape:window-height="1175"
     inkscape:window-x="935"
     inkscape:window-y="25"
     inkscape:window-maximized="0"
     inkscape:current-layer="g11635" />
  <g
     opacity=".7"
     id="g11635">
    <rect
       x="1"
       y="9"
       height="7"
       fill="#bc9662"
       opacity="1"
       id="rect11623"
       width="15.000945"
       style="fill:#0f824e;fill-opacity:1" />
    <path
       d="m8 1v5h-5v2h10v-7z"
       fill="#99a8b0"
       opacity="1"
       id="path11625" />
    <path
       d="m7 1v4h-4z"
       fill="#99a8b0"
       opacity="1"
       id="path11627" />
    <g
       transform="matrix(1.18549 0 0 1.18549 .0214974 -2.54905)"
       fill="#231f20"
       opacity="1"
       id="g11633" />
    <path
       id="path3027"
       d="m 5.8826772,9.6766279 c -2.82e-5,0 -0.00821,0.002 -0.00946,0.0029 -0.00121,8.08e-4 -0.00162,0.0012 -0.00202,0.002 -8.087e-4,0.0012 -0.00162,0.0017 -0.00202,0.002 -8.087e-4,0.0012 -0.00121,0.0024 -0.00202,0.0036 -0.00162,0.0029 -0.00404,0.0073 -0.00664,0.01234 -0.00554,0.01008 -0.01387,0.02398 -0.024018,0.04328 -0.020298,0.03858 -0.050054,0.09595 -0.0875,0.169 -0.074916,0.1461091 -0.1823031,0.3569521 -0.3140233,0.6175951 -0.2634366,0.521285 -0.6246123,1.240009 -1.0200281,2.030901 -0.3954239,0.7909 -0.7498469,1.507623 -1.003288,2.024582 -0.1267226,0.258475 -0.2286264,0.467361 -0.296945,0.610626 -0.034168,0.07163 -0.060013,0.126205 -0.076762,0.16332 -0.00836,0.01856 -0.014516,0.03283 -0.018317,0.04234 -0.00202,0.0048 -0.00283,0.008 -0.00364,0.0114 -4.044e-4,0.0016 -0.00121,0.0032 -8.087e-4,0.0079 7.27e-5,0.0012 7.27e-5,0.0024 8.087e-4,0.0047 8.087e-4,0.0024 0.00659,0.0076 0.00664,0.0076 5.25e-5,0 0.008,0.0024 0.010752,0.002 0.00283,-4.05e-4 0.00457,-0.0012 0.0057,-0.002 0.00324,-0.002 0.00643,-0.0041 0.012616,-0.0085 0.00623,-0.0044 0.014233,-0.01044 0.024948,-0.01831 0.02147,-0.01573 0.051874,-0.03902 0.090032,-0.06728 0.076313,-0.05654 0.1836629,-0.136451 0.3149465,-0.234393 0.2625753,-0.195882 0.619938,-0.462201 1.0073962,-0.752783 l 1.3994236,-1.050673 1.3934197,1.050673 c 0.385816,0.290682 0.740846,0.557847 1.002341,0.753729 0.130746,0.09794 0.238302,0.177873 0.314316,0.234397 0.038,0.02826 0.06864,0.05063 0.09004,0.06634 0.01068,0.0078 0.01872,0.01387 0.02495,0.01831 0.0062,0.0044 0.0094,0.0066 0.01261,0.0085 0.0012,8.09e-4 0.0029,0.0016 0.0056,0.002 0.0029,4.04e-4 0.01068,-0.002 0.0108,-0.002 3.3e-5,0 0.0058,-0.0054 0.0066,-0.0076 8.09e-4,-0.002 8.09e-4,-0.0036 8.09e-4,-0.0047 2.7e-4,-0.0046 -4.04e-4,-0.0053 -8.09e-4,-0.007 -8.09e-4,-0.0032 -0.002,-0.0066 -0.0036,-0.0114 -0.0036,-0.0096 -0.01,-0.02377 -0.01831,-0.04234 -0.01674,-0.03716 -0.04261,-0.0926 -0.07676,-0.164266 -0.06832,-0.143341 -0.170225,-0.352147 -0.296947,-0.610658 C 8.1000708,14.06778 7.7456518,13.351122 7.3502278,12.560222 6.9548118,11.769334 6.5936363,11.05061 6.3301955,10.52932 6.1984793,10.268678 6.0910925,10.057834 6.0161953,9.9117439 c -0.037442,-0.07304 -0.067211,-0.130434 -0.087505,-0.169006 -0.010152,-0.01928 -0.018438,-0.03324 -0.024018,-0.04327 -0.00283,-0.005 -0.00493,-0.0095 -0.00664,-0.01234 -8.087e-4,-0.0017 -0.00121,-0.0024 -0.00202,-0.0036 -4.043e-4,-8.09e-4 -8.087e-4,-0.0012 -0.00202,-0.002 -4.044e-4,-4.04e-4 -4.044e-4,-8.09e-4 -0.00202,-0.002 -0.00121,-8.09e-4 -0.00974,-0.0029 -0.00978,-0.0029 z m 0.00696,1.8524181 0.4223534,0.710767 c 0.2392243,0.403062 0.4722257,0.796715 0.5177553,0.874717 l 0.062233,0.106776 -0.4820595,-0.166162 -0.5212286,-0.180692 -0.00505,-8.08e-4 -0.00473,8.08e-4 -0.5272332,0.184484 c -0.237607,0.08291 -0.3679039,0.126916 -0.4321468,0.142153 -0.016052,0.0036 -0.02782,0.0062 -0.035381,0.0066 -0.00283,2.01e-4 -0.00162,2.01e-4 -0.00283,0 0.00121,-0.0032 0.00324,-0.0059 0.00664,-0.0114 0.012979,-0.02029 0.077731,-0.127806 0.1737402,-0.287152 0.096008,-0.159344 0.2228927,-0.369949 0.3563315,-0.59262 z"
       style="color:#000000;font-style:normal;font-variant:normal;font-weight:normal;font-stretch:normal;font-size:medium;line-height:normal;font-family:Sans;-inkscape-font-specification:Sans;text-indent:0;text-align:start;text-decoration:none;text-decoration-line:none;letter-spacing:normal;word-spacing:normal;text-transform:none;writing-mode:lr-tb;direction:ltr;baseline-shift:baseline;text-anchor:start;display:inline;overflow:visible;visibility:visible;fill-opacity:1;fill-rule:nonzero;stroke:none;stroke-width:0.0101087;marker:none;enable-background:accumulate;fill:#ff0000"
       inkscape:connector-curvature="0" />
  </g>
</svg>
