<?xml version="1.0" encoding="UTF-8"?>
<!-- Generated by Pixelmator Pro 3.2.3 -->
<svg width="100" height="100" viewBox="0 0 100 100" xmlns="http://www.w3.org/2000/svg" xmlns:xlink="http://www.w3.org/1999/xlink">
    <path id="Filled" fill="#929292" fill-rule="evenodd" stroke="none" visibility="hidden" d="M 22.916666 91.666664 C 21.250008 91.666664 19.792473 91.040848 18.54248 89.790855 C 17.292488 88.540855 16.666666 87.083321 16.666666 85.416664 L 16.666666 14.583336 C 16.666666 12.916672 17.292488 11.459145 18.54248 10.209145 C 19.792473 8.959145 21.250008 8.333336 22.916666 8.333336 L 57.918293 8.333336 C 58.751625 8.333336 59.565159 8.506943 60.36377 8.854164 C 61.162376 9.201393 61.838646 9.653595 62.394207 10.209145 L 81.45752 29.272461 C 82.013077 29.828018 82.465279 30.50428 82.8125 31.302895 C 83.159721 32.101501 83.333336 32.915039 83.333336 33.748375 L 83.333336 85.416664 C 83.333336 87.083321 82.707527 88.540855 81.45752 89.790855 C 80.20752 91.040848 78.75 91.666664 77.083336 91.666664 L 22.916666 91.666664 Z M 25 75 L 50 56.510418 L 75 75 L 50 25 L 25 75 Z M 58.59375 55.46875 L 50 53.125 L 41.40625 55.208332 L 50 41.145832 L 58.59375 55.46875 Z M 60.522461 33.959961 L 77.083336 33.959961 L 72.21273 29.166664 L 77.083336 29.166664 L 62.5 14.583336 L 62.5 19.604492 L 57.397461 14.583336 L 57.397461 30.834961 C 57.397461 31.73774 57.690155 32.482643 58.280437 33.072914 C 58.870712 33.663193 59.619686 33.959961 60.522461 33.959961 Z"/>
    <path id="Shape" fill="#929292" fill-rule="evenodd" stroke="none" d="M 22.916666 91.666664 C 21.250006 91.666664 19.792475 91.040848 18.54248 89.790855 C 17.292486 88.540855 16.666666 87.083328 16.666666 85.416664 L 16.666666 14.583336 C 16.666666 12.916672 17.292486 11.459145 18.54248 10.209145 C 19.792475 8.959145 21.250006 8.333336 22.916666 8.333336 L 57.918293 8.333336 L 62.084961 8.333336 C 62.918293 8.333336 63.731827 8.506943 64.530434 8.854164 C 65.329041 9.201393 66.00531 9.653595 66.560875 10.209145 L 81.45752 25.105797 C 82.013077 25.661346 82.465279 26.337616 82.8125 27.13623 C 83.159721 27.934837 83.333336 28.748367 83.333336 29.581703 L 83.333336 33.748375 L 83.333336 85.416664 C 83.333336 87.083328 82.707527 88.540855 81.45752 89.790855 C 80.20752 91.040848 78.75 91.666664 77.083336 91.666664 L 22.916666 91.666664 Z M 22.916666 85.416664 L 77.083336 85.416664 L 77.083336 33.959961 L 60.522461 33.959961 C 59.619686 33.959961 58.870712 33.663193 58.280437 33.072914 C 57.690155 32.482643 57.397461 31.73774 57.397461 30.834961 L 57.397461 14.583336 L 22.916666 14.583336 L 22.916666 33.959961 L 22.916666 85.416664 Z M 25 75 L 50 25 L 75 75 L 50 56.510418 L 25 75 Z M 58.59375 55.46875 L 50 41.145832 L 41.40625 55.208332 L 50 53.125 L 58.59375 55.46875 Z"/>
</svg>
