<?xml version="1.0" encoding="UTF-8"?>
<!-- Generated by Pixelmator Pro 3.4.1 -->
<svg width="16" height="16" viewBox="0 0 16 16" xmlns="http://www.w3.org/2000/svg">
    <g id="layer1">
        <g id="g3090">
            <path id="path2994" fill="#0f824e" stroke="none" d="M 15.741971 8.3447 C 15.741971 11.706058 12.272178 14.430977 7.991971 14.430977 C 3.711764 14.430977 0.24197 11.706058 0.24197 8.3447 C 0.24197 4.983341 3.711764 2.258422 7.991971 2.258422 C 12.272178 2.258422 15.741971 4.983341 15.741971 8.3447 Z"/>
            <path id="path3027" fill="#000000" stroke="none" d="M 7.998 1.997461 C 7.997937 1.997461 7.980942 2.001388 7.978256 2.003385 C 7.975574 2.005381 7.975287 2.006277 7.974308 2.007334 C 7.972355 2.009453 7.971255 2.010679 7.970359 2.01194 C 7.968561 2.014469 7.968196 2.016887 7.96641 2.019837 C 7.962831 2.025747 7.958374 2.035039 7.95259 2.045505 C 7.941022 2.066434 7.923713 2.095489 7.902573 2.135667 C 7.860292 2.216023 7.798291 2.335581 7.720274 2.48776 C 7.56424 2.792118 7.340519 3.231374 7.066104 3.774381 C 6.517274 4.860394 5.764828 6.357738 4.941041 8.005423 C 4.117242 9.653135 3.378864 11.146313 2.850857 12.223303 C 2.586854 12.761797 2.374554 13.196976 2.232227 13.495445 C 2.161062 13.64468 2.107198 13.758367 2.072304 13.835691 C 2.054856 13.874352 2.042017 13.904049 2.034132 13.92388 C 2.03019 13.933795 2.02814 13.940646 2.026236 13.947572 C 2.025285 13.951036 2.023685 13.954326 2.024261 13.964025 C 2.024401 13.966452 2.024415 13.96922 2.026236 13.973897 C 2.028058 13.978571 2.03996 13.989635 2.040056 13.989692 C 2.040155 13.989692 2.056751 13.99469 2.062432 13.99364 C 2.068113 13.992584 2.071944 13.991107 2.074278 13.989692 C 2.080622 13.985851 2.087624 13.981252 2.100602 13.971922 C 2.113582 13.962593 2.13023 13.950136 2.152594 13.933752 C 2.197321 13.900986 2.260664 13.852478 2.340158 13.793572 C 2.499147 13.675762 2.722788 13.509294 2.996301 13.305248 C 3.543329 12.89716 4.287838 12.342329 5.095041 11.736953 L 8.010505 9.548052 L 10.913464 11.736953 C 11.717246 12.342545 12.456896 12.899132 13.001673 13.307223 C 13.27406 13.511268 13.498138 13.677789 13.6565 13.795547 C 13.735682 13.854426 13.799496 13.901019 13.844064 13.933752 C 13.866348 13.950117 13.883105 13.962607 13.896055 13.971922 C 13.909004 13.981237 13.915692 13.985704 13.92238 13.989692 C 13.924755 13.9911 13.928471 13.992641 13.934226 13.99364 C 13.939982 13.994633 13.956507 13.98975 13.956602 13.989692 C 13.956665 13.989692 13.968642 13.978518 13.970423 13.973897 C 13.972201 13.969275 13.972257 13.966434 13.972396 13.964025 C 13.972973 13.95439 13.971366 13.953018 13.970423 13.949547 C 13.968521 13.942604 13.966469 13.935785 13.962525 13.925854 C 13.954639 13.905991 13.941802 13.876356 13.924355 13.837667 C 13.889459 13.760288 13.835596 13.644727 13.764432 13.495445 C 13.622104 13.196881 13.409803 12.761869 13.145801 12.223303 C 12.617793 11.14617 11.879416 9.653135 11.055617 8.005423 C 10.231831 6.357738 9.479383 4.860394 8.930553 3.774381 C 8.656138 3.231374 8.432419 2.792118 8.276384 2.48776 C 8.198367 2.335581 8.136365 2.216023 8.094086 2.135667 C 8.072946 2.095489 8.055635 2.066434 8.044068 2.045505 C 8.038287 2.035039 8.033825 2.025745 8.030248 2.019837 C 8.028461 2.016887 8.028098 2.014469 8.026299 2.01194 C 8.025402 2.01068 8.024303 2.009452 8.02235 2.007334 C 8.021371 2.006276 8.021085 2.005383 8.018402 2.003385 C 8.015719 2.001389 7.998069 1.997461 7.998 1.997461 Z M 8.012479 5.856667 L 8.892383 7.337433 C 9.390765 8.177145 9.876184 8.997254 9.971038 9.159761 L 10.100688 9.382206 L 9.096399 9.036036 L 8.010505 8.659592 L 7.999975 8.657619 L 7.990102 8.659592 L 6.891703 9.043934 C 6.396686 9.216663 6.125236 9.308342 5.991397 9.340086 C 5.957938 9.348022 5.933402 9.353031 5.917688 9.353907 C 5.911792 9.354227 5.914614 9.354355 5.911765 9.353907 C 5.914685 9.347322 5.918174 9.341789 5.925585 9.330215 C 5.952638 9.287966 6.087534 9.063957 6.287551 8.731985 C 6.487567 8.400013 6.751904 7.961257 7.029908 7.497355 L 8.012479 5.856667 Z"/>
        </g>
    </g>
</svg>
