<?xml version="1.0" encoding="UTF-8"?>
<!-- Generated by Pixelmator Pro 3.4.1 -->
<svg width="16" height="16" viewBox="0 0 16 16" xmlns="http://www.w3.org/2000/svg">
    <path id="Filled" fill="#929292" fill-rule="evenodd" stroke="none" visibility="hidden" d="M 14.916666 83.666664 C 13.250008 83.666664 11.792473 83.040848 10.54248 81.790855 C 9.292488 80.540855 8.666666 79.083321 8.666666 77.416664 L 8.666666 6.583336 C 8.666666 4.916672 9.292488 3.459145 10.54248 2.209145 C 11.792473 0.959145 13.250008 0.333336 14.916666 0.333336 L 49.918293 0.333336 C 50.751625 0.333336 51.565159 0.506943 52.36377 0.854164 C 53.162376 1.201393 53.838646 1.653595 54.394207 2.209145 L 73.45752 21.272461 C 74.013077 21.828018 74.465279 22.50428 74.8125 23.302895 C 75.159721 24.101501 75.333336 24.915039 75.333336 25.748375 L 75.333336 77.416664 C 75.333336 79.083321 74.707527 80.540855 73.45752 81.790855 C 72.20752 83.040848 70.75 83.666664 69.083336 83.666664 L 14.916666 83.666664 Z M 17 67 L 42 48.510418 L 67 67 L 42 17 L 17 67 Z M 50.59375 47.46875 L 42 45.125 L 33.40625 47.208332 L 42 33.145832 L 50.59375 47.46875 Z M 52.522461 25.959961 L 69.083336 25.959961 L 64.21273 21.166664 L 69.083336 21.166664 L 54.5 6.583336 L 54.5 11.604492 L 49.397461 6.583336 L 49.397461 22.834961 C 49.397461 23.73774 49.690155 24.482643 50.280437 25.072914 C 50.870712 25.663193 51.619686 25.959961 52.522461 25.959961 Z"/>
    <path id="Shape" fill="#6c707e" fill-rule="evenodd" stroke="none" d="M 2.866666 16.333336 C 2.546667 16.333336 2.266821 16.213179 2.026822 15.973181 C 1.786824 15.733181 1.666666 15.453336 1.666666 15.133336 L 1.666666 1.533336 C 1.666666 1.213336 1.786824 0.933491 2.026822 0.693491 C 2.266821 0.453491 2.546667 0.333336 2.866666 0.333336 L 9.586979 0.333336 L 10.386979 0.333336 C 10.546979 0.333336 10.703177 0.366669 10.85651 0.433335 C 11.009843 0.500003 11.139687 0.586825 11.246355 0.693491 L 14.106511 3.553649 C 14.213178 3.660315 14.3 3.790158 14.366667 3.943492 C 14.433333 4.096825 14.466667 4.253022 14.466667 4.413023 L 14.466667 5.213024 L 14.466667 15.133336 C 14.466667 15.453336 14.346512 15.733181 14.106511 15.973181 C 13.86651 16.213179 13.586667 16.333336 13.266667 16.333336 L 2.866666 16.333336 Z M 2.866666 15.133336 L 13.266667 15.133336 L 13.266667 5.253648 L 10.086979 5.253648 C 9.913647 5.253648 9.769843 5.196669 9.65651 5.083335 C 9.543177 4.970003 9.486979 4.826982 9.486979 4.653648 L 9.486979 1.533336 L 2.866666 1.533336 L 2.866666 5.253648 L 2.866666 15.133336 Z M 3.266666 13.133336 L 8.066667 3.533336 L 12.866667 13.133336 L 8.066667 9.583336 L 3.266666 13.133336 Z M 9.716666 9.383336 L 8.066667 6.633335 L 6.416667 9.333336 L 8.066667 8.933336 L 9.716666 9.383336 Z"/>
</svg>
