<?xml version="1.0" encoding="UTF-8" standalone="no"?>
<svg
   enable-background="new 0 0 20 20"
   height="16"
   viewBox="0 0 6.6666698 6.6666667"
   width="16.000008"
   fill="#000000"
   version="1.1"
   id="svg2799"
   sodipodi:docname="lexer.svg"
   inkscape:version="1.1.1 (c3084ef, 2021-09-22)"
   xmlns:inkscape="http://www.inkscape.org/namespaces/inkscape"
   xmlns:sodipodi="http://sodipodi.sourceforge.net/DTD/sodipodi-0.dtd"
   xmlns="http://www.w3.org/2000/svg"
   xmlns:svg="http://www.w3.org/2000/svg">
  <defs
     id="defs2803" />
  <sodipodi:namedview
     id="namedview2801"
     pagecolor="#505050"
     bordercolor="#ffffff"
     borderopacity="1"
     inkscape:pageshadow="0"
     inkscape:pageopacity="0"
     inkscape:pagecheckerboard="1"
     showgrid="false"
     inkscape:zoom="18.6875"
     inkscape:cx="0.18729097"
     inkscape:cy="9.6053512"
     inkscape:window-width="1312"
     inkscape:window-height="1081"
     inkscape:window-x="1203"
     inkscape:window-y="112"
     inkscape:window-maximized="0"
     inkscape:current-layer="layer2" />
  <rect
     fill="none"
     height="6.6666665"
     width="6.6666665"
     id="rect2795"
     x="-0.037270248"
     y="-0.014977515"
     style="stroke-width:0.333333" />
  <g
     inkscape:groupmode="layer"
     id="layer1"
     inkscape:label="back"
     transform="translate(-0.03727025,-0.01497751)">
    <rect
       style="opacity:0.92;fill:#ff00ff;stroke:#ff00ff;stroke-width:0.788038;stroke-opacity:1"
       id="rect2907"
       width="5.8786321"
       height="5.8786287"
       x="0.43128926"
       y="0.40899652"
       ry="1.6053512" />
  </g>
  <g
     inkscape:groupmode="layer"
     id="layer2"
     inkscape:label="Front"
     transform="translate(-0.03727025,-0.01497751)">
    <path
       d="M 5.02,1.6466667 4.3333333,1.3333333 5.02,1.02 5.3333333,0.33333333 5.6466667,1.02 6.3333333,1.3333333 5.6466667,1.6466667 5.3333333,2.3333333 Z M 5.3333333,6.3333333 5.6466667,5.6466667 6.3333333,5.3333333 5.6466667,5.02 5.3333333,4.3333333 5.02,5.02 4.3333333,5.3333333 5.02,5.6466667 Z m -4.49999997,-3 C 0.83333333,4.2533333 1.58,5 2.5,5 3.42,5 4.1666667,4.2533333 4.1666667,3.3333333 4.1666667,2.4133333 3.42,1.6666667 2.5,1.6666667 c -0.92,0 -1.66666667,0.7466666 -1.66666667,1.6666666 z M 2.5,1.1666667 c 1.1966667,0 2.1666667,0.97 2.1666667,2.1666666 C 4.6666667,4.53 3.6966667,5.5 2.5,5.5 1.3033333,5.5 0.33333333,4.53 0.33333333,3.3333333 0.33333333,2.1366667 1.3033333,1.1666667 2.5,1.1666667 Z M 2.3132665,3.5632665 v 0 L 1.6666667,2.9166667 2.3132665,3.5632665 1.6256968,4.2887402 2.75,4.3333333 v 0 L 1.6256968,4.2887402 Z"
       id="path2797"
       style="stroke-width:0.333333"
       sodipodi:nodetypes="ccccccccccccccccccssssssssssccccccccc" />
    <text
       xml:space="preserve"
       style="font-size:3.09686px;line-height:1.25;font-family:sans-serif;stroke-width:0.29033"
       x="1.4009773"
       y="4.6905999"
       id="text24730"
       transform="scale(1.0751344,0.93011628)"><tspan
         id="tspan24728"
         style="stroke-width:0.29033"
         x="1.4009773"
         y="4.6905999"
         sodipodi:role="line">L</tspan></text>
  </g>
</svg>
