<?xml version="1.0" encoding="UTF-8" standalone="no"?>
<svg
   height="15.273198"
   viewBox="0 0 7.5004725 7.6365991"
   width="15.000945"
   fill="#000000"
   version="1.1"
   id="svg6"
   sodipodi:docname="repo-file.svg"
   inkscape:version="1.1.1 (c3084ef, 2021-09-22)"
   xmlns:inkscape="http://www.inkscape.org/namespaces/inkscape"
   xmlns:sodipodi="http://sodipodi.sourceforge.net/DTD/sodipodi-0.dtd"
   xmlns="http://www.w3.org/2000/svg"
   xmlns:svg="http://www.w3.org/2000/svg">
  <defs
     id="defs10" />
  <sodipodi:namedview
     id="namedview8"
     pagecolor="#505050"
     bordercolor="#ffffff"
     borderopacity="1"
     inkscape:pageshadow="0"
     inkscape:pageopacity="0"
     inkscape:pagecheckerboard="1"
     showgrid="false"
     inkscape:zoom="18.1875"
     inkscape:cx="23.505155"
     inkscape:cy="8.1099656"
     inkscape:window-width="3440"
     inkscape:window-height="1387"
     inkscape:window-x="935"
     inkscape:window-y="25"
     inkscape:window-maximized="1"
     inkscape:current-layer="svg6" />
  <path
     d="M -0.92330307,-8.209622 H 9.0766969 v 10 h -9.99999997 z"
     fill="none"
     id="path2"
     style="stroke-width:0.416667" />
  <path
     d="M 0.92721233,3.75 H 6.5990874 V 2.8125 H 0.92721233 Z M 1.4943999,3.046875 h 0.5671874 v 0.46875 H 1.4943999 Z M 0.92721233,0 V 0.9375 H 6.5990874 V 0 Z M 2.0615873,0.703125 H 1.4943999 V 0.234375 H 2.0615873 Z M 0.92721233,2.34375 H 6.5990874 V 1.40625 H 0.92721233 Z M 1.4943999,1.640625 h 0.5671874 v 0.46875 H 1.4943999 Z"
     id="path4"
     style="stroke-width:0.257815" />
  <rect
     x="0"
     y="4.1365991"
     height="3.5"
     fill="#bc9662"
     opacity="1"
     id="rect11623"
     width="7.5004725"
     style="fill:#0f82e9;fill-opacity:1;stroke-width:0.5" />
  <g
     transform="matrix(0.592745,0,0,0.592745,14.438584,-4.1946281)"
     fill="#231f20"
     opacity="1"
     id="g11633" />
  <path
     id="path3027"
     d="m 3.4780002,6.014411 c -6e-6,0 -0.00164,4e-4 -0.00188,5.6e-4 -2.42e-4,1.62e-4 -3.24e-4,2.4e-4 -4e-4,4e-4 -1.62e-4,2.4e-4 -3.24e-4,3.4e-4 -4e-4,4e-4 -1.62e-4,2.4e-4 -2.42e-4,4.8e-4 -4e-4,7.2e-4 -3.24e-4,6e-4 -8e-4,0.0015 -0.00132,0.0025 -0.00112,0.002 -0.00276,0.0048 -0.00481,0.0087 -0.00406,0.0077 -0.010012,0.01919 -0.0175,0.0338 -0.014984,0.02922 -0.03646,0.07139 -0.062805,0.123519 C 3.3357982,6.289267 3.2635628,6.433012 3.1844796,6.59119 3.1053946,6.74937 3.03451,6.892715 2.983822,6.996107 c -0.025344,0.0517 -0.045725,0.09347 -0.059389,0.122125 -0.00683,0.01433 -0.012004,0.02524 -0.015352,0.03266 -0.00168,0.0037 -0.00292,0.0066 -0.00368,0.0085 -4e-4,9.6e-4 -5.6e-4,0.0016 -7.2e-4,0.0023 -8.08e-5,3.2e-4 -2.42e-4,6.4e-4 -1.616e-4,0.0015 1.44e-5,2.4e-4 1.44e-5,4.8e-4 1.616e-4,9.6e-4 1.616e-4,4.8e-4 0.00132,0.0015 0.00132,0.0015 1.04e-5,0 0.0016,4.8e-4 0.00216,4e-4 5.6e-4,-8.1e-5 9.2e-4,-2.4e-4 0.00112,-4e-4 6.4e-4,-4e-4 0.00128,-8e-4 0.00252,-0.0017 0.00124,-8.8e-4 0.00284,-0.0021 0.00498,-0.0037 0.0043,-0.0031 0.010376,-0.0078 0.018008,-0.01346 0.015264,-0.0113 0.036732,-0.02729 0.062989,-0.04688 0.052515,-0.03918 0.1239876,-0.09244 0.2014792,-0.150557 L 3.479142,6.739221 3.757826,6.949355 c 0.077163,0.05814 0.1481692,0.11157 0.200468,0.150746 0.026148,0.01958 0.04766,0.03558 0.062863,0.04688 0.0076,0.0057 0.013728,0.01012 0.018008,0.01326 0.00212,0.0016 0.00376,0.0027 0.00499,0.0037 0.00124,8.8e-4 0.00188,0.0013 0.00252,0.0017 2.4e-4,1.61e-4 6e-4,3.2e-4 0.00112,4e-4 6e-4,8e-5 0.00212,-4e-4 0.00216,-4e-4 6.8e-6,0 0.00116,-0.0011 0.00132,-0.0015 1.62e-4,-4e-4 1.62e-4,-7.2e-4 1.62e-4,-8.8e-4 5.4e-5,-9.6e-4 -8.08e-5,-0.001 -1.62e-4,-0.0014 -1.616e-4,-6.4e-4 -4e-4,-0.0013 -7.2e-4,-0.0022 -7.2e-4,-0.0019 -0.002,-0.0047 -0.00368,-0.0085 C 4.043515,7.143761 4.038355,7.132641 4.031523,7.118311 4.017859,7.089541 3.997479,7.047781 3.972133,6.996081 3.921454,6.892685 3.8505702,6.749353 3.7714854,6.591173 3.6924024,6.432996 3.620167,6.289251 3.567479,6.184993 3.541135,6.132863 3.519658,6.090693 3.504679,6.061478 c -0.00749,-0.01461 -0.013444,-0.02609 -0.0175,-0.0338 -0.00204,-0.0038 -0.00368,-0.0066 -0.00481,-0.0087 -5.6e-4,-9.6e-4 -10e-4,-0.0018 -0.00132,-0.0025 -1.616e-4,-3.4e-4 -2.42e-4,-4.8e-4 -4e-4,-7.2e-4 -8.08e-5,-1.62e-4 -1.616e-4,-2.4e-4 -4e-4,-4e-4 -8.08e-5,-8.1e-5 -8.08e-5,-1.62e-4 -4e-4,-4e-4 -2.42e-4,-1.62e-4 -0.00196,-5.6e-4 -0.00196,-5.6e-4 z m 0.0014,0.370484 0.08447,0.142153 c 0.047845,0.08061 0.094445,0.159343 0.1035512,0.174944 l 0.012448,0.02135 -0.096412,-0.03323 -0.104246,-0.03614 -10e-4,-1.62e-4 -9.6e-4,1.62e-4 -0.1054464,0.0369 c -0.047522,0.01658 -0.073581,0.02538 -0.08643,0.02843 -0.0032,7.2e-4 -0.00557,0.0012 -0.00707,0.0013 -5.6e-4,4e-5 -3.24e-4,4e-5 -5.6e-4,0 2.42e-4,-6.4e-4 6.4e-4,-0.0012 0.00132,-0.0023 0.0026,-0.0041 0.015548,-0.02556 0.034748,-0.05743 0.0192,-0.03187 0.044578,-0.07399 0.071266,-0.118524 z"
     style="color:#000000;font-style:normal;font-variant:normal;font-weight:normal;font-stretch:normal;font-size:medium;line-height:normal;font-family:Sans;-inkscape-font-specification:Sans;text-indent:0;text-align:start;text-decoration:none;text-decoration-line:none;letter-spacing:normal;word-spacing:normal;text-transform:none;writing-mode:lr-tb;direction:ltr;baseline-shift:baseline;text-anchor:start;display:inline;overflow:visible;visibility:visible;fill-opacity:1;fill-rule:nonzero;stroke:none;stroke-width:0.00202175;marker:none;enable-background:accumulate"
     inkscape:connector-curvature="0" />
  <path
     style="fill:#99a8b0;fill-opacity:1;stroke-width:0.0170101"
     d="M 0.93072053,3.276418 V 2.8125 H 3.7561342 6.581547 V 3.276418 3.740335 H 3.7561342 0.93072053 Z m 1.14139157,0.0077 V 3.044459 H 1.7820862 1.4920605 V 3.28415 3.523841 h 0.2900257 0.2900259 z"
     id="path1369" />
  <path
     style="fill:#99a8b0;fill-opacity:1;stroke-width:0.0170101"
     d="M 0.93072053,1.876933 V 1.4207474 H 3.7561342 6.581547 V 1.876933 2.333119 H 3.7561342 0.93072053 Z m 1.14139157,0 V 1.6372423 H 1.7820862 1.4920605 V 1.876933 2.116624 h 0.2900257 0.2900259 z"
     id="path1445" />
  <path
     style="fill:#99a8b0;fill-opacity:1;stroke-width:0.0170101"
     d="M 0.93072053,0.4697165 V 0.0135309 H 3.7561342 6.581547 V 0.4697165 0.9259021 H 3.7561342 0.93072053 Z m 1.14139157,0 V 0.2300258 H 1.7820862 1.4920605 v 0.2396907 0.2396907 h 0.2900257 0.2900259 z"
     id="path1484" />
  <text
     xml:space="preserve"
     style="font-size:3.33334px;line-height:1.25;font-family:sans-serif;stroke-width:0.625"
     x="0.6885677"
     y="7.1479325"
     id="text3211"><tspan
       sodipodi:role="line"
       id="tspan3209"
       style="font-style:italic;font-variant:normal;font-weight:normal;font-stretch:normal;font-family:sans-serif;-inkscape-font-specification:'sans-serif Italic';stroke-width:0.625"
       x="0.6885677"
       y="7.1479325">R</tspan></text>
</svg>
