<?xml version="1.0" encoding="UTF-8" standalone="no"?>
<svg
   width="13"
   height="13"
   viewBox="0 0 13 13"
   version="1.1"
   id="svg1703"
   sodipodi:docname="repo-file-v2.svg"
   inkscape:version="1.1.1 (c3084ef, 2021-09-22)"
   xmlns:inkscape="http://www.inkscape.org/namespaces/inkscape"
   xmlns:sodipodi="http://sodipodi.sourceforge.net/DTD/sodipodi-0.dtd"
   xmlns="http://www.w3.org/2000/svg"
   xmlns:svg="http://www.w3.org/2000/svg">
  <defs
     id="defs1707" />
  <sodipodi:namedview
     id="namedview1705"
     pagecolor="#505050"
     bordercolor="#ffffff"
     borderopacity="1"
     inkscape:pageshadow="0"
     inkscape:pageopacity="0"
     inkscape:pagecheckerboard="1"
     showgrid="false"
     inkscape:zoom="67.153846"
     inkscape:cx="2.2113402"
     inkscape:cy="8.9049255"
     inkscape:window-width="2110"
     inkscape:window-height="1122"
     inkscape:window-x="935"
     inkscape:window-y="25"
     inkscape:window-maximized="0"
     inkscape:current-layer="g1701" />
  <g
     fill="none"
     fill-rule="evenodd"
     id="g1701"
     style="fill:#9aa7b0;fill-opacity:0.80000001">
    <path
       fill="#AFB1B3"
       d="M10,6.03944385 C9.04905946,6.27327869 7.82962919,6.41376151 6.5,6.41376151 C3.46243388,6.41376151 1,5.68057644 1,4.77614683 C1,4.65790961 1,4.23495495 1,3.50728282 C2.21656017,4.20871409 4.22647384,4.66697249 6.5,4.66697249 C8.77352616,4.66697249 10.7834398,4.20871409 12,3.50728282 C12,4.2164002 12,4.63935487 12,4.77614683 C12,5.26289587 11.2867772,5.70004539 10.1545245,6 L10,6 L10,6.03944385 Z M1,6.34581483 C1.92801888,6.88088204 3.31768814,7.27444759 4.93386411,7.43103841 C4.53608719,7.90529615 4.24630732,8.47319464 4.10237415,9.09688421 C2.26605102,8.84456773 1,8.31144022 1,7.69456284 C1,7.57462201 1,7.12503933 1,6.34581483 Z M4.59434065,12.099034 C2.4960194,11.868257 1,11.2673398 1,10.5623853 L1,9.18434683 C1.744357,9.61352024 2.78571787,9.95165821 4.00274187,10.149494 C4.02895238,10.8628711 4.24197726,11.5285431 4.59434065,12.099034 Z M6.5,3.57522937 C3.46243388,3.57522937 1,2.8420443 1,1.93761469 C1,1.03318508 3.46243388,0.300000012 6.5,0.300000012 C9.53756612,0.300000012 12,1.03318508 12,1.93761469 C12,2.8420443 9.53756612,3.57522937 6.5,3.57522937 Z"
       id="path1693"
       style="fill:#668299;fill-opacity:1" />
    <ellipse
       id="path2994-8"
       style="fill:#0f824e;fill-opacity:1;stroke-width:0.0272494;stroke-miterlimit:4;stroke-dasharray:none"
       cx="8.3986216"
       cy="9.6153488"
       rx="4.0110002"
       ry="3.1501174" />
    <path
       id="path3027-0"
       d="m 8.4017365,6.3845971 c -3e-5,0 -0.0088,0.00202 -0.01021,0.00303 -0.0013,0.00101 -0.0017,0.00135 -0.002,0.00202 -0.001,0.00101 -0.0017,0.00168 -0.002,0.00236 -10e-4,0.00135 -10e-4,0.0027 -0.002,0.00408 -0.0017,0.00303 -0.0041,0.00785 -0.0071,0.013276 -0.006,0.010816 -0.01496,0.025878 -0.02588,0.046665 -0.02187,0.041591 -0.05397,0.1034692 -0.09435,0.1822328 -0.08075,0.1575306 -0.19654,0.3848785 -0.338564,0.6659272 -0.284047,0.5620974 -0.673475,1.3370772 -1.099822,2.1898804 -0.4263581,0.8528375 -0.8085038,1.6256475 -1.0817722,2.1830745 -0.1366359,0.278731 -0.2465107,0.503953 -0.3201727,0.658447 -0.036829,0.07723 -0.064706,0.136097 -0.082767,0.176094 -0.00903,0.01988 -0.015669,0.03538 -0.019746,0.04566 -0.00202,0.0051 -0.00303,0.0088 -0.00408,0.01213 -3.369e-4,0.0034 -0.00135,0.0034 -0.00101,0.0084 7.75e-5,0 7.75e-5,0.0034 0.00101,0.0051 0.00101,0.0034 0.00711,0.0081 0.00714,0.0081 5.39e-5,0 0.00863,0.0034 0.011591,0.0034 0.00303,0 0.00492,0 0.00613,-0.0034 0.00337,-0.0034 0.00691,-0.0044 0.013613,-0.0091 0.00671,-0.0047 0.015332,-0.01146 0.026923,-0.01988 0.023149,-0.01685 0.055931,-0.04209 0.097074,-0.07258 0.082285,-0.06095 0.1980293,-0.147115 0.3395848,-0.252751 0.2831142,-0.211204 0.6684341,-0.498359 1.0861991,-0.811695 l 1.508895,-1.132915 1.502421,1.132915 c 0.4159965,0.313437 0.7987995,0.601502 1.0807475,0.81274 0.140976,0.105602 0.256946,0.191795 0.338908,0.252751 0.04098,0.03033 0.074,0.05459 0.09707,0.07154 0.01152,0.0084 0.02022,0.01483 0.02692,0.01988 0.0067,0.0047 0.01018,0.0071 0.01361,0.0091 0.0013,0 0.003,0 0.0061,0.0034 0.003,0 0.01152,-0.0034 0.01159,-0.0034 3e-5,0 0.0062,-0.0057 0.0071,-0.0081 10e-4,-0.0034 10e-4,-0.0037 10e-4,-0.0051 2.97e-4,-0.0051 -6.74e-4,-0.0057 -10e-4,-0.0074 -10e-4,-0.0037 -0.002,-0.0071 -0.0041,-0.01213 -0.0041,-0.01045 -0.01071,-0.02561 -0.01975,-0.04562 -0.01806,-0.04006 -0.04594,-0.09987 -0.08277,-0.177138 C 11.312609,12.181063 11.202733,11.955908 11.0661,11.677144 10.792843,11.119649 10.410698,10.346906 9.9843435,9.4940685 9.5579925,8.6412657 9.1685655,7.8662859 8.8845205,7.3041885 8.7424975,7.0231398 8.6267125,6.7957919 8.5459575,6.6382613 8.5055795,6.5594977 8.4734875,6.4976191 8.4516055,6.4560285 c -0.01095,-0.02079 -0.01991,-0.035835 -0.02588,-0.046665 -0.003,-0.00542 -0.0053,-0.010243 -0.0071,-0.013276 -10e-4,-0.00168 -10e-4,-0.0027 -0.002,-0.00408 -3.37e-4,-6.739e-4 -10e-4,-0.00135 -0.002,-0.00236 -3.37e-4,-6.739e-4 -6.74e-4,-0.00101 -0.002,-0.00202 -0.0013,-0.00101 -0.01051,-0.00303 -0.01055,-0.00303 z m 0.0075,1.9974378 0.455394,0.7664176 c 0.257936,0.434607 0.509165,0.8590715 0.558256,0.9431755 l 0.0671,0.115138 -0.519769,-0.17916 -0.562003,-0.1948285 h -0.0055 -0.0051 l -0.568473,0.1989065 c -0.256198,0.08939 -0.396685,0.136871 -0.465953,0.153281 -0.01732,0.004 -0.03002,0.0067 -0.03815,0.0071 -0.003,1.69e-4 -0.0017,2.36e-4 -0.003,0 0.0013,-0.0034 0.0034,-0.0064 0.0071,-0.01213 0.01398,-0.0219 0.08381,-0.137815 0.187334,-0.3096305 0.103516,-0.171847 0.240324,-0.398922 0.384205,-0.639038 z"
       style="color:#000000;font-style:normal;font-variant:normal;font-weight:normal;font-stretch:normal;font-size:medium;line-height:normal;font-family:Sans;-inkscape-font-specification:Sans;text-indent:0;text-align:start;text-decoration:none;text-decoration-line:none;letter-spacing:normal;word-spacing:normal;text-transform:none;writing-mode:lr-tb;direction:ltr;baseline-shift:baseline;text-anchor:start;display:inline;overflow:visible;visibility:visible;fill:#1a1a1a;fill-opacity:1;fill-rule:nonzero;stroke:none;stroke-width:0.0108998;marker:none;enable-background:accumulate"
       inkscape:connector-curvature="0" />
  </g>
</svg>
