<?xml version="1.0" encoding="UTF-8" standalone="no"?>
<!-- Created with Inkscape (http://www.inkscape.org/) -->

<svg
   xmlns:dc="http://purl.org/dc/elements/1.1/"
   xmlns:cc="http://creativecommons.org/ns#"
   xmlns:rdf="http://www.w3.org/1999/02/22-rdf-syntax-ns#"
   xmlns:svg="http://www.w3.org/2000/svg"
   xmlns="http://www.w3.org/2000/svg"
   xmlns:sodipodi="http://sodipodi.sourceforge.net/DTD/sodipodi-0.dtd"
   xmlns:inkscape="http://www.inkscape.org/namespaces/inkscape"
   width="256"
   height="256"
   id="svg2"
   version="1.1"
   inkscape:version="0.48.2 r9819"
   sodipodi:docname="AvailHammer.svg"
   inkscape:export-xdpi="31.9"
   inkscape:export-ydpi="31.9">
  <defs
     id="defs4" />
  <sodipodi:namedview
     id="base"
     pagecolor="#ffffff"
     bordercolor="#666666"
     borderopacity="1.0"
     inkscape:pageopacity="0.0"
     inkscape:pageshadow="2"
     inkscape:zoom="2"
     inkscape:cx="90.358895"
     inkscape:cy="137.65678"
     inkscape:document-units="px"
     inkscape:current-layer="layer1"
     showgrid="true"
     inkscape:window-width="1440"
     inkscape:window-height="852"
     inkscape:window-x="0"
     inkscape:window-y="0"
     inkscape:window-maximized="1"
     inkscape:snap-global="false"
     width="256px">
    <inkscape:grid
       type="xygrid"
       id="grid3063"
       empspacing="5"
       visible="true"
       enabled="true"
       snapvisiblegridlinesonly="true" />
  </sodipodi:namedview>
  <metadata
     id="metadata7">
    <rdf:RDF>
      <cc:Work
         rdf:about="">
        <dc:format>image/svg+xml</dc:format>
        <dc:type
           rdf:resource="http://purl.org/dc/dcmitype/StillImage" />
        <dc:title />
      </cc:Work>
    </rdf:RDF>
  </metadata>
  <g
     inkscape:label="Layer 1"
     inkscape:groupmode="layer"
     id="layer1"
     transform="translate(0,-796.3622)">
    <g
       id="g3090"
       transform="matrix(0.33695652,0,0,0.33695652,3.197619,738.02709)">
      <path
         transform="translate(418,-34)"
         d="m 320,603.36218 c 0,159.6103 -164.75921,289 -368,289 -203.24079,0 -368,-129.3897 -368,-289 0,-159.61029 164.75921,-289 368,-289 203.24079,0 368,129.38971 368,289 z"
         sodipodi:ry="289"
         sodipodi:rx="368"
         sodipodi:cy="603.36218"
         sodipodi:cx="-48"
         id="path2994"
         style="fill:#0f824e;fill-opacity:1;stroke-width:2.5;stroke-miterlimit:4;stroke-dasharray:none"
         sodipodi:type="arc" />
      <path
         id="path3027"
         d="m 293.125,273.90625 c -0.003,0 -0.81001,0.18641 -0.9375,0.28125 -0.12738,0.0948 -0.14099,0.13734 -0.1875,0.1875 -0.0927,0.10063 -0.14494,0.15887 -0.1875,0.21875 -0.0854,0.12008 -0.10269,0.23486 -0.1875,0.375 -0.16994,0.2806 -0.38163,0.72184 -0.65625,1.21875 -0.54927,0.99385 -1.3712,2.37345 -2.375,4.28125 -2.00762,3.81563 -4.95171,9.4927 -8.65625,16.71875 -7.40913,14.45211 -18.03222,35.30966 -31.0625,61.09375 -26.06059,51.56816 -61.78969,122.66778 -100.90625,200.90625 -39.11717,78.23972 -74.178208,149.14159 -99.25,200.28125 -12.535906,25.56981 -22.616729,46.23379 -29.375,60.40625 -3.37914,7.08624 -5.936817,12.48454 -7.59375,16.15625 -0.828476,1.83578 -1.438095,3.24586 -1.8125,4.1875 -0.187207,0.47082 -0.2845885,0.79615 -0.375,1.125 -0.045125,0.16447 -0.12111,0.32069 -0.09375,0.78125 0.00665,0.11522 0.0073,0.24668 0.09375,0.46875 0.086545,0.22192 0.651728,0.74734 0.65625,0.75 0.0047,0 0.792729,0.23736 1.0625,0.1875 0.269772,-0.0502 0.451664,-0.12031 0.5625,-0.1875 0.301236,-0.1824 0.633688,-0.40074 1.25,-0.84375 0.616303,-0.443 1.406821,-1.03448 2.46875,-1.8125 2.12383,-1.55587 5.131539,-3.85922 8.90625,-6.65625 7.549422,-5.59405 18.168734,-13.49864 31.15625,-23.1875 25.975005,-19.37764 61.32717,-45.72313 99.65625,-74.46875 L 293.71875,632.4375 431.5625,736.375 c 38.16671,28.75583 73.28815,55.18476 99.15625,74.5625 12.93404,9.68884 23.5741,17.59588 31.09375,23.1875 3.75981,2.79582 6.78995,5.00823 8.90625,6.5625 1.05816,0.7771 1.85385,1.37018 2.46875,1.8125 0.61489,0.44232 0.93241,0.65444 1.25,0.84375 0.11278,0.0669 0.2892,0.14008 0.5625,0.1875 0.27329,0.0471 1.05796,-0.18476 1.0625,-0.1875 0.003,0 0.57171,-0.53058 0.65625,-0.75 0.0845,-0.21948 0.0871,-0.35437 0.0937,-0.46875 0.0274,-0.45752 -0.0489,-0.52265 -0.0937,-0.6875 -0.0903,-0.32968 -0.18774,-0.65342 -0.375,-1.125 -0.37447,-0.94316 -0.98401,-2.35035 -1.8125,-4.1875 -1.65698,-3.67422 -4.21461,-9.16148 -7.59375,-16.25 -6.75832,-14.17696 -16.83911,-34.83302 -29.375,-60.40625 -25.07182,-51.14645 -60.1328,-122.0415 -99.25,-200.28125 -39.11657,-78.23847 -74.84567,-149.33809 -100.90625,-200.90625 -13.0303,-25.78409 -23.65338,-46.64164 -31.0625,-61.09375 -3.70455,-7.22605 -6.64864,-12.90312 -8.65625,-16.71875 -1.0038,-1.9078 -1.82574,-3.2874 -2.375,-4.28125 -0.27452,-0.49691 -0.48641,-0.93824 -0.65625,-1.21875 -0.0848,-0.14014 -0.10208,-0.25492 -0.1875,-0.375 -0.0426,-0.0598 -0.0948,-0.11815 -0.1875,-0.21875 -0.0465,-0.0502 -0.0601,-0.0926 -0.1875,-0.1875 -0.12738,-0.0948 -0.96548,-0.28125 -0.96875,-0.28125 z m 0.6875,183.25 41.78125,70.3125 C 359.25887,567.34154 382.30843,606.28348 386.8125,614 l 6.15625,10.5625 -47.6875,-16.4375 -51.5625,-17.875 -0.5,-0.0937 -0.46875,0.0937 -52.15625,18.25 c -23.50535,8.20189 -36.39483,12.55518 -42.75,14.0625 -1.5888,0.37683 -2.75384,0.61466 -3.5,0.65625 -0.27999,0.0152 -0.14597,0.0213 -0.28125,0 0.13862,-0.31267 0.3043,-0.57537 0.65625,-1.125 1.28455,-2.00616 7.68993,-12.64297 17.1875,-28.40625 9.49757,-15.76329 22.04931,-36.59719 35.25,-58.625 l 46.65625,-77.90625 z"
         style="font-size:medium;font-style:normal;font-variant:normal;font-weight:normal;font-stretch:normal;text-indent:0;text-align:start;text-decoration:none;line-height:normal;letter-spacing:normal;word-spacing:normal;text-transform:none;direction:ltr;block-progression:tb;writing-mode:lr-tb;text-anchor:start;baseline-shift:baseline;color:#000000;fill-opacity:1;fill-rule:nonzero;stroke:none;stroke-width:1;marker:none;visibility:visible;display:inline;overflow:visible;enable-background:accumulate;font-family:Sans;-inkscape-font-specification:Sans"
         inkscape:connector-curvature="0" />
      <path
         sodipodi:nodetypes="ccccccccccccccc"
         inkscape:connector-curvature="0"
         id="path3056"
         d="m 560.38225,388.63056 44.90727,-7.91835 c -5.62563,-29.09638 -8.09278,-47.03773 -6.96923,-63.59598 22.97529,-23.12732 56.64299,-28.21342 75.41782,-13.7805 16.98423,10.86416 41.33318,27.37881 52.32934,44.0219 8.04694,-9.4751 -12.07117,-30.96656 -15.24338,-43.22983 -8.15848,-13.35645 -21.0696,-29.30982 -40.95381,-46.79943 -29.51409,-11.01495 -47.21735,-20.55761 -79.25527,-13.99957 -24.97296,2.86538 -33.7751,2.73111 -55.53946,8.34617 -26.89162,12.97372 -36.49559,34.29117 -55.07376,23.02323 -1.01193,-18.49566 -26.65105,-15.55787 -34.14164,-1.60071 5.81172,36.38527 5.27492,37.72688 12.99294,79.70472 12.35431,13.11469 29.04032,10.54391 34.30822,-8.94343 -2.07219,-27.14453 38.29451,-24.33365 58.02302,-19.97408 0.69682,3.55439 5.61718,39.34644 9.19782,64.7465 z"
         style="fill:#5b1900;fill-opacity:1;stroke:#000000;stroke-width:7.5999999;stroke-linecap:butt;stroke-linejoin:miter;stroke-miterlimit:4;stroke-opacity:1;stroke-dasharray:none" />
      <path
         inkscape:connector-curvature="0"
         id="path3061"
         d="m 641.36007,559.56584 -58.09865,10.24434 c 8.85719,91.98356 15.73732,108.29362 35.12401,257.73631 11.65228,13.23297 70.89133,1.99911 74.99974,-15.05733 4.19462,-19.05094 -42.73565,-214.23263 -52.0251,-252.92332 z"
         style="fill:#000000;fill-opacity:1;stroke:#000000;stroke-width:7.5999999;stroke-linecap:butt;stroke-linejoin:miter;stroke-miterlimit:4;stroke-opacity:1;stroke-dasharray:none" />
      <path
         inkscape:connector-curvature="0"
         id="path3059"
         d="m 640.73866,556.58843 -57.81806,10.19488 c 0.10852,1.14213 0.23316,1.90825 0.34082,3.02687 l 58.09865,-10.24434 c -0.10852,-0.45329 -0.52364,-2.57017 -0.62141,-2.97741 z"
         style="fill:none;stroke:#000000;stroke-width:7.5999999;stroke-linecap:butt;stroke-linejoin:miter;stroke-miterlimit:4;stroke-opacity:1;stroke-dasharray:none" />
      <path
         inkscape:connector-curvature="0"
         id="path3054"
         d="m 560.81657,391.64085 c 9.20297,65.45771 21.1864,154.11743 20.86748,163.20587 0.43849,4.89419 0.8097,7.43685 1.23655,11.93659 l 57.81806,-10.19488 c -0.37327,-1.55457 -2.46598,-10.45544 -2.66745,-11.2984 C 622.88818,465.05877 612.33485,416.93727 605.81739,383.706 l -45.00082,7.93485 z"
         style="fill:#c1c1c1;fill-opacity:1;stroke:#000000;stroke-width:7.5999999;stroke-linecap:butt;stroke-linejoin:miter;stroke-miterlimit:4;stroke-opacity:1;stroke-dasharray:none" />
      <path
         inkscape:connector-curvature="0"
         id="path3037"
         d="m 560.81657,391.64085 45.00082,-7.93485 c -0.23499,-1.19746 -0.30403,-1.83579 -0.52787,-2.99379 l -44.90727,7.91835 c 0.16629,1.18132 0.26448,1.80102 0.43432,3.01029 z"
         style="fill:none;stroke:#000000;stroke-width:7.5999999;stroke-linecap:butt;stroke-linejoin:miter;stroke-miterlimit:4;stroke-opacity:1;stroke-dasharray:none" />
    </g>
  </g>
</svg>
