<?xml version="1.0" encoding="UTF-8"?>
<!-- Generated by Pixelmator Pro 3.2.3 -->
<svg width="100" height="100" viewBox="0 0 100 100" xmlns="http://www.w3.org/2000/svg" xmlns:xlink="http://www.w3.org/1999/xlink">
    <path id="Shape" fill="#929292" fill-rule="evenodd" stroke="none" d="M 22.916666 91.666664 C 21.250004 91.666664 19.792477 91.040848 18.54248 89.790855 C 17.292486 88.540855 16.666666 87.083328 16.666666 85.416664 L 16.666666 14.583336 C 16.666666 12.916672 17.292486 11.459145 18.54248 10.209145 C 19.792477 8.959145 21.250004 8.333336 22.916666 8.333336 L 64.168297 8.333336 C 65.001625 8.333336 65.815155 8.506943 66.61377 8.854164 C 67.412376 9.201393 68.088654 9.653595 68.644203 10.209145 L 81.45752 23.022461 C 82.013084 23.578018 82.465286 24.25428 82.8125 25.052895 C 83.159714 25.851501 83.333336 26.665039 83.333336 27.498375 L 83.333336 85.416664 C 83.333336 87.083328 82.70752 88.540855 81.45752 89.790855 C 80.20752 91.040848 78.750008 91.666664 77.083336 91.666664 L 22.916666 91.666664 Z M 22.916666 85.416664 L 77.083336 85.416664 L 77.083336 27.709961 L 66.772461 27.709961 C 65.869682 27.709961 65.120712 27.413193 64.530434 26.822914 C 63.940155 26.232643 63.647461 25.48774 63.647461 24.584961 L 63.647461 14.583336 L 22.916666 14.583336 L 22.916666 33.959961 L 22.916666 85.416664 Z M 25 75 L 50 25 L 75 75 L 50 56.510418 L 25 75 Z M 58.59375 55.46875 L 50 41.145832 L 41.40625 55.208332 L 50 53.125 L 58.59375 55.46875 Z"/>
</svg>
