<?xml version="1.0" encoding="UTF-8"?>
<!-- Generated by Pixelmator Pro 3.2.3 -->
<svg width="100" height="100" viewBox="0 0 100 100" xmlns="http://www.w3.org/2000/svg" xmlns:xlink="http://www.w3.org/1999/xlink">
    <path id="Path" fill="#929292" stroke="none" d="M 14.6875 83.333336 C 13.020833 83.333336 11.5625 82.690971 10.3125 81.40625 C 9.0625 80.121536 8.4375 78.680557 8.4375 77.083336 L 8.4375 22.916664 C 8.4375 21.319443 9.0625 19.878464 10.3125 18.59375 C 11.5625 17.309029 13.020833 16.666664 14.6875 16.666664 L 41.25 16.666664 C 42.083332 16.666664 42.899307 16.840279 43.697918 17.1875 C 44.496529 17.534721 45.173611 17.986115 45.729168 18.541672 L 50.104164 22.916664 L 85.520828 22.916664 C 87.11805 22.916664 88.559029 23.559029 89.84375 24.84375 C 91.128471 26.128464 91.770828 27.569443 91.770828 29.166664 L 91.770828 77.083336 C 91.770828 78.680557 91.128471 80.121536 89.84375 81.40625 C 88.559029 82.690971 87.11805 83.333336 85.520828 83.333336 Z M 14.6875 22.916664 L 14.6875 77.083336 L 85.520828 77.083336 L 85.520828 29.166664 L 47.5 29.166664 L 41.25 22.916664 L 14.6875 22.916664 Z M 14.6875 22.916664 L 14.6875 77.083336 Z"/>
</svg>
