<?xml version="1.0" encoding="UTF-8"?>
<!-- Generated by Pixelmator Pro 3.2.3 -->
<svg width="100" height="100" viewBox="0 0 100 100" xmlns="http://www.w3.org/2000/svg" xmlns:xlink="http://www.w3.org/1999/xlink">
    <path id="Path-copy" fill="#929292" fill-rule="evenodd" stroke="none" d="M 14.689127 83.333336 C 13.022465 83.333336 11.560871 82.689339 10.310873 81.404625 C 9.060875 80.119904 8.439127 78.680557 8.439127 77.083336 L 8.439127 22.916664 C 8.439127 21.319443 9.060875 19.880096 10.310873 18.595375 C 11.560871 17.310661 13.022465 16.666664 14.689127 16.666664 L 41.251629 16.666664 C 42.084953 16.666664 42.898491 16.840279 43.697102 17.1875 C 44.495708 17.534721 45.171982 17.986923 45.727539 18.54248 L 50.105793 22.916664 L 85.522461 22.916664 C 87.119682 22.916664 88.559029 23.560661 89.84375 24.845375 C 91.128471 26.130096 91.772461 27.569443 91.772461 29.166664 L 91.772461 77.083336 C 91.772461 78.680557 91.128471 80.119904 89.84375 81.404625 C 88.559029 82.689339 87.119682 83.333336 85.522461 83.333336 L 14.689127 83.333336 Z M 25 77.083336 L 50 58.59375 L 75 77.083336 L 50 27.083336 L 25 77.083336 Z M 58.59375 57.552082 L 50 55.208332 L 41.40625 57.291668 L 50 43.229168 L 58.59375 57.552082 Z"/>
</svg>
