<?xml version="1.0" encoding="UTF-8"?>
<!-- Generated by Pixelmator Pro 2.4.7 -->
<svg width="100" height="100" viewBox="0 0 100 100" xmlns="http://www.w3.org/2000/svg" xmlns:xlink="http://www.w3.org/1999/xlink">
    <path id="Path" fill="#646464" stroke="none" d="M 34.375 70 L 50 54.375 L 65.625 70 L 70 65.625 L 54.375 50 L 70 34.375 L 65.625 30 L 50 45.625 L 34.375 30 L 30 34.375 L 45.625 50 L 30 65.625 Z M 50 91.666664 C 44.305555 91.666664 38.923611 90.572914 33.854168 88.385414 C 28.784723 86.197914 24.357639 83.211805 20.572916 79.427086 C 16.788195 75.642362 13.802084 71.215276 11.614583 66.145828 C 9.427083 61.076388 8.333333 55.694445 8.333333 50 C 8.333333 44.236112 9.427083 38.819445 11.614583 33.75 C 13.802084 28.680552 16.788195 24.270828 20.572916 20.520828 C 24.357639 16.770833 28.784723 13.802086 33.854168 11.614586 C 38.923611 9.427086 44.305555 8.333336 50 8.333336 C 55.763888 8.333336 61.180555 9.427086 66.25 11.614586 C 71.319448 13.802086 75.729172 16.770833 79.479172 20.520828 C 83.229167 24.270828 86.197914 28.680552 88.385414 33.75 C 90.572914 38.819445 91.666664 44.236112 91.666664 50 C 91.666664 55.694445 90.572914 61.076388 88.385414 66.145828 C 86.197914 71.215276 83.229167 75.642362 79.479172 79.427086 C 75.729172 83.211805 71.319448 86.197914 66.25 88.385414 C 61.180555 90.572914 55.763888 91.666664 50 91.666664 Z"/>
</svg>
