<?xml version="1.0" encoding="UTF-8"?>
<!-- Generated by Pixelmator Pro 3.2.3 -->
<svg width="100" height="100" viewBox="0 0 100 100" xmlns="http://www.w3.org/2000/svg" xmlns:xlink="http://www.w3.org/1999/xlink">
    <path id="Path" fill="#67caca" stroke="none" visibility="hidden" d="M 18.75 91.666664 C 17.083332 91.666664 15.625 90.989578 14.375 89.635422 C 13.125 88.28125 12.5 86.805557 12.5 85.208336 L 12.5 33.958328 C 11.527777 33.819443 10.590277 33.125 9.6875 31.875 C 8.784723 30.625 8.333333 29.270844 8.333333 27.8125 L 8.333333 14.583336 C 8.333333 12.986115 8.958334 11.545135 10.208334 10.260414 C 11.458333 8.9757 12.916666 8.333336 14.583333 8.333336 L 85.416664 8.333336 C 87.013885 8.333336 88.454865 8.9757 89.739586 10.260414 C 91.0243 11.545135 91.666664 12.986115 91.666664 14.583336 L 91.666664 27.8125 C 91.666664 29.270844 91.215279 30.625 90.3125 31.875 C 89.409721 33.125 88.472221 33.819443 87.5 33.958328 L 87.5 85.208336 C 87.5 86.805557 86.857635 88.28125 85.572922 89.635422 C 84.2882 90.989578 82.847221 91.666664 81.25 91.666664 Z M 18.75 34.0625 L 18.75 85.416664 L 81.25 85.416664 L 81.25 34.0625 Z M 85.416664 27.8125 L 85.416664 14.583336 L 14.583333 14.583336 L 14.583333 27.8125 Z M 40.625 55.9375 L 59.375 55.9375 C 60.277775 55.9375 61.024307 55.642357 61.614586 55.052082 C 62.204861 54.461803 62.5 53.715275 62.5 52.8125 C 62.5 51.909725 62.204861 51.163197 61.614586 50.572914 C 61.024307 49.982639 60.277775 49.6875 59.375 49.6875 L 40.625 49.6875 C 39.722225 49.6875 38.975693 49.982639 38.385414 50.572914 C 37.795139 51.163197 37.5 51.909725 37.5 52.8125 C 37.5 53.715275 37.795139 54.461803 38.385414 55.052082 C 38.975693 55.642357 39.722225 55.9375 40.625 55.9375 Z M 18.75 85.416664 L 18.75 34.0625 L 18.75 85.416664 Z"/>
    <path id="Path-copy" fill="#67caca" fill-rule="evenodd" stroke="none" d="M 81.807457 89.481606 C 79.973244 89.448723 77.148438 86.914063 77.148438 86.914063 L 50.557453 59.598797 L 22.904459 87.634277 C 22.904459 87.634277 21.878605 88.110352 21.150717 88.110352 C 20.056036 88.110352 19.026695 87.752281 19.026695 87.752281 L 10.742188 80.078125 C 10.742188 80.078125 10.306805 79.153999 10.306805 78.426109 C 10.306805 77.698212 10.856121 76.529945 10.856121 76.529945 L 40.287273 49.12923 L 32.051594 40.401203 L 19.360352 42.891438 L 8.410644 28.104652 L 12.524415 24.21875 L 21.931967 33.353676 L 28.73942 31.433105 L 30.562338 24.88607 L 21.13851 15.865074 L 25.484213 11.617027 L 41.267902 21.675621 L 38.48877 34.195961 L 49.556477 44.425457 L 63.700359 30.773926 C 63.700359 30.773926 64.316635 30.611031 63.183594 28.027344 C 62.791389 27.133003 64.318428 25.266815 64.310707 23.510742 C 64.299179 20.888168 62.140919 18.422897 60.253906 16.601563 C 57.635277 14.074074 51.464844 12.109375 51.464844 12.109375 L 51.464844 11.035156 C 51.464844 11.035156 60.642521 9.731125 66.601563 13.081871 C 69.881683 14.92627 77.449188 22.55545 83.300781 28.715004 C 84.693893 30.181435 85.327019 32.37001 86.230469 34.179688 C 87.715332 37.153992 88.863121 37.426758 88.863121 37.426758 C 88.863121 37.426758 91.326317 35.851852 93.265785 37.927246 C 95.41375 40.225742 94.014488 41.988117 94.014488 41.988117 L 86.523438 49.21875 C 86.523438 49.21875 84.413757 49.788998 82.417809 47.542316 C 81.214142 46.187443 82.03125 43.945313 82.03125 43.945313 L 83.337402 42.354328 C 83.337402 42.354328 80.533478 38.273232 78.34066 37.524414 C 76.723099 36.972038 74.904747 37.994522 73.242188 37.597656 C 72.136078 37.333618 70.385742 36.218262 70.385742 36.218262 L 56.136066 50.105793 L 87.361656 79.007973 C 87.361656 79.007973 89.018066 81.129883 88.944496 82.552086 C 88.869293 84.005913 88.134361 85.909126 87.036133 87.07682 C 85.779297 88.413147 83.653984 89.514717 81.807457 89.481606 Z M 82.421875 85.9375 C 84.039894 85.9375 85.351563 84.625832 85.351563 83.007813 C 85.351563 81.389793 84.039894 80.078125 82.421875 80.078125 C 80.803856 80.078125 79.492188 81.389793 79.492188 83.007813 C 79.492188 84.625832 80.803856 85.9375 82.421875 85.9375 Z"/>
</svg>
