<?xml version="1.0" encoding="UTF-8"?>
<!-- Generated by Pixelmator Pro 3.2.3 -->
<svg width="1024" height="1024" viewBox="0 0 1024 1024" xmlns="http://www.w3.org/2000/svg" xmlns:xlink="http://www.w3.org/1999/xlink">
    <path id="Path" fill="#929292" fill-rule="evenodd" stroke="none" d="M 838.597656 916.28125 C 838.300842 916.281616 838.004456 916.278748 837.708984 916.273438 C 818.926697 915.936646 790 890 790 890 L 517.708984 610.273438 L 234.550781 897.382813 C 234.550781 897.382813 224.031693 902.248047 216.578125 902.248047 C 205.368576 902.248047 194.839844 898.578125 194.839844 898.578125 L 110 820 C 110 820 105.542969 810.557068 105.542969 803.103516 C 105.542969 795.649963 111.148438 783.683594 111.148438 783.683594 L 412.542969 503.103516 L 328.205078 413.728516 L 198.236328 439.199219 L 86.134766 287.783203 L 128.238281 248.019531 L 224.580078 341.541016 L 294.287109 321.892578 L 312.960938 254.841797 L 216.460938 162.472656 L 260.960938 118.962891 L 422.572266 221.949219 L 394.128906 350.166016 L 507.449219 454.929688 L 652.296875 315.132813 C 652.296875 315.132813 658.602356 313.456909 647 287 C 642.983826 277.841919 658.637634 258.722412 658.558594 240.740234 C 658.440552 213.885071 636.322998 188.650452 617 170 C 590.185181 144.118469 527 124 527 124 L 527 113 C 527 113 620.977478 99.661133 681.998047 133.972656 C 715.586487 152.859314 793.087463 230.95929 853.007813 294.033203 C 867.273254 309.049438 873.748718 331.468872 883 350 C 898.204956 380.456909 909.945313 383.234375 909.945313 383.234375 C 909.945313 383.234375 935.184753 367.134644 955.044922 388.386719 C 977.040039 411.923401 962.705078 429.976563 962.705078 429.976563 L 886 504 C 886 504 864.389709 509.84198 843.951172 486.835938 C 831.62561 472.962036 840 450 840 450 L 853.386719 433.693359 C 853.386719 433.693359 824.645935 391.904236 802.191406 384.236328 C 785.627625 378.580017 767.024597 389.063904 750 385 C 738.673401 382.296265 720.751953 370.894531 720.751953 370.894531 L 574.845703 513.099609 L 894.576172 809.060547 C 894.576172 809.060547 911.554138 830.780396 910.800781 845.34375 C 910.030701 860.230957 902.488037 879.68927 891.242188 891.646484 C 878.573303 905.116699 857.295349 916.259705 838.597656 916.28125 Z M 844 880 C 860.568542 880 874 866.568542 874 850 C 874 833.431458 860.568542 820 844 820 C 827.431458 820 814 833.431458 814 850 C 814 866.568542 827.431458 880 844 880 Z"/>
</svg>
