<?xml version="1.0" encoding="UTF-8"?>
<!-- Generated by Pixelmator Pro 3.2.3 -->
<svg width="100" height="100" viewBox="0 0 100 100" xmlns="http://www.w3.org/2000/svg" xmlns:xlink="http://www.w3.org/1999/xlink">
    <path id="Path" fill="#929292" stroke="none" d="M 28.854168 70.9375 L 57.5 70.9375 L 57.5 64.6875 L 28.854168 64.6875 Z M 28.854168 53.125 L 71.145836 53.125 L 71.145836 46.875 L 28.854168 46.875 Z M 28.854168 35.3125 L 71.145836 35.3125 L 71.145836 29.0625 L 28.854168 29.0625 Z M 18.75 87.5 C 17.083333 87.5 15.625 86.875 14.375 85.625 C 13.125 84.375 12.5 82.916667 12.5 81.25 L 12.5 18.75 C 12.5 17.083333 13.125 15.625 14.375 14.375 C 15.625 13.125 17.083333 12.5 18.75 12.5 L 81.25 12.5 C 82.916667 12.5 84.375 13.125 85.625 14.375 C 86.875 15.625 87.5 17.083333 87.5 18.75 L 87.5 81.25 C 87.5 82.916667 86.875 84.375 85.625 85.625 C 84.375 86.875 82.916667 87.5 81.25 87.5 Z M 18.75 81.25 L 81.25 81.25 L 81.25 18.75 L 18.75 18.75 L 18.75 81.25 Z M 18.75 18.75 L 18.75 81.25 L 18.75 18.75 Z"/>
</svg>
