<?xml version="1.0" encoding="UTF-8"?>
<!-- Generated by Pixelmator Pro 3.2.3 -->
<svg width="96" height="96" viewBox="0 0 96 96" xmlns="http://www.w3.org/2000/svg" xmlns:xlink="http://www.w3.org/1999/xlink">
    <path id="Path" fill="#007746" stroke="none" d="M 14.1 80 C 12.5 80 11.1 79.383334 9.9 78.150002 C 8.7 76.916669 8.1 75.533335 8.1 74 L 8.1 22 C 8.1 20.466665 8.7 19.083331 9.9 17.849998 C 11.1 16.616666 12.5 16 14.1 16 L 39.599998 16 C 40.399999 16 41.183333 16.166667 41.950001 16.5 C 42.716666 16.833333 43.366666 17.266668 43.900002 17.800003 L 48.099998 22 L 82.099998 22 C 83.633334 22 85.016668 22.616666 86.25 23.849998 C 87.483332 25.083331 88.099998 26.466665 88.099998 28 L 88.099998 74 C 88.099998 75.533335 87.483332 76.916669 86.25 78.150002 C 85.016668 79.383334 83.633334 80 82.099998 80 Z"/>
    <path id="path3027-copy" fill="#000000" stroke="none" d="M 48.771347 27.918762 C 48.771137 27.918762 48.714241 27.931908 48.70525 27.938591 C 48.69627 27.945274 48.695313 27.948273 48.692032 27.951813 C 48.685497 27.958908 48.681812 27.963013 48.678814 27.967232 C 48.672794 27.9757 48.671574 27.983795 48.665592 27.993668 C 48.65361 28.013458 48.638691 28.044563 48.619328 28.079597 C 48.580601 28.149666 48.522655 28.246933 48.451881 28.381439 C 48.310341 28.650452 48.102776 29.050697 47.841595 29.56015 C 47.319233 30.579063 46.570278 32.049572 45.651608 33.867416 C 43.81427 37.503101 41.29528 42.515808 38.53746 48.031822 C 35.779602 53.547928 33.307709 58.546688 31.540081 62.152164 C 30.656267 63.954899 29.945545 65.411758 29.469069 66.410957 C 29.230831 66.910561 29.050508 67.291153 28.933689 67.550018 C 28.87528 67.679443 28.8323 67.778854 28.805904 67.845245 C 28.792706 67.878441 28.785839 67.901375 28.779465 67.924561 C 28.776283 67.936157 28.770927 67.947174 28.772856 67.979645 C 28.773325 67.987762 28.773371 67.997032 28.779465 68.012688 C 28.785568 68.028336 28.825415 68.065376 28.825733 68.065567 C 28.826065 68.065567 28.881622 68.082298 28.900642 68.078781 C 28.919661 68.075249 28.932486 68.070305 28.9403 68.065567 C 28.961538 68.052711 28.984976 68.037308 29.028427 68.006073 C 29.071878 67.974846 29.127613 67.933144 29.20248 67.878296 C 29.352217 67.7686 29.564268 67.606209 29.830395 67.409012 C 30.362648 67.01461 31.111338 66.457321 32.026989 65.774231 C 33.858295 64.408058 36.350712 62.550632 39.053013 60.523994 L 48.81321 53.196133 L 58.531548 60.523994 C 61.222397 62.551353 63.698547 64.414658 65.522316 65.780838 C 66.434196 66.463928 67.184349 67.021393 67.7145 67.415619 C 67.979584 67.612732 68.193214 67.768715 68.342415 67.878296 C 68.417023 67.933083 68.473122 67.974892 68.516472 68.006073 C 68.559822 68.037262 68.582214 68.052216 68.604599 68.065567 C 68.612549 68.070282 68.624992 68.075439 68.644257 68.078781 C 68.663528 68.082108 68.718849 68.065758 68.71917 68.065567 C 68.719376 68.065567 68.759476 68.02816 68.765434 68.012688 C 68.771385 67.997215 68.771576 67.987701 68.772041 67.979645 C 68.773972 67.947388 68.768593 67.942795 68.765434 67.931168 C 68.759071 67.907928 68.752197 67.885101 68.738998 67.851852 C 68.712593 67.785355 68.669617 67.68615 68.611206 67.556625 C 68.494385 67.297585 68.314072 66.910713 68.075829 66.410957 C 67.599358 65.411446 66.888626 63.955143 66.004814 62.152164 C 64.23719 58.546207 61.765301 53.547928 59.007439 48.031822 C 56.249619 42.515808 53.730625 37.503101 51.893288 33.867416 C 50.974621 32.049572 50.225666 30.579063 49.703304 29.56015 C 49.442123 29.050697 49.234558 28.650452 49.093018 28.381439 C 49.022247 28.246933 48.964294 28.149666 48.925571 28.079597 C 48.906219 28.044563 48.891281 28.013451 48.879303 27.993668 C 48.873325 27.983795 48.872108 27.9757 48.866089 27.967232 C 48.863083 27.963013 48.859406 27.9589 48.852867 27.951813 C 48.849586 27.948273 48.848629 27.945282 48.839649 27.938591 C 48.830669 27.931908 48.77158 27.918762 48.771347 27.918762 Z M 48.81982 40.838356 L 51.765503 45.79557 C 53.433956 48.606701 55.05901 51.352211 55.376556 51.89624 L 55.810589 52.640926 L 52.448498 51.48204 L 48.81321 50.221806 L 48.777958 50.215202 L 48.744907 50.221806 L 45.06776 51.50848 C 43.410572 52.086735 42.501831 52.39365 42.053776 52.49992 C 41.941761 52.526489 41.859623 52.543259 41.807018 52.546188 C 41.787277 52.54726 41.796726 52.547688 41.787186 52.546188 C 41.796963 52.524147 41.808643 52.505623 41.833454 52.466873 C 41.924019 52.325436 42.375614 51.575516 43.045219 50.464161 C 43.714821 49.352806 44.599751 47.883968 45.530434 46.330948 L 48.81982 40.838356 Z"/>
</svg>
