<?xml version="1.0" encoding="UTF-8"?>
<!-- Generated by Pixelmator Pro 3.2.3 -->
<svg width="96" height="96" viewBox="0 0 96 96" xmlns="http://www.w3.org/2000/svg" xmlns:xlink="http://www.w3.org/1999/xlink">
    <path id="Path" fill="#929292" stroke="none" d="M 18 84 C 16.333333 84 14.916667 83.416667 13.75 82.25 C 12.583333 81.083333 12 79.666667 12 78 L 12 18 C 12 16.333333 12.583333 14.916667 13.75 13.75 C 14.916667 12.583333 16.333333 12 18 12 L 55.5 12 C 56.300001 12 57.083333 12.166667 57.849998 12.5 C 58.616666 12.833333 59.266666 13.266668 59.799999 13.800003 L 82.199997 36.200001 C 82.733332 36.733334 83.166667 37.383334 83.5 38.150002 C 83.833333 38.916667 84 39.699999 84 40.5 L 84 78 C 84 79.666667 83.416667 81.083333 82.25 82.25 C 81.083333 83.416667 79.666667 84 78 84 Z M 30.9 66.900002 L 65.099998 66.900002 C 65.966667 66.900002 66.683334 66.616669 67.25 66.050003 C 67.816666 65.483332 68.099998 64.766665 68.099998 63.900002 C 68.099998 63.033333 67.816666 62.316666 67.25 61.75 C 66.683334 61.183334 65.966667 60.900002 65.099998 60.900002 L 30.9 60.900002 C 30.033333 60.900002 29.316667 61.183334 28.75 61.75 C 28.183333 62.316666 27.9 63.033333 27.9 63.900002 C 27.9 64.766665 28.183333 65.483332 28.75 66.050003 C 29.316667 66.616669 30.033333 66.900002 30.9 66.900002 Z M 30.9 51 L 65.099998 51 C 65.966667 51 66.683334 50.716667 67.25 50.150002 C 67.816666 49.583333 68.099998 48.866666 68.099998 48 C 68.099998 47.133334 67.816666 46.416667 67.25 45.849998 C 66.683334 45.283333 65.966667 45 65.099998 45 L 30.9 45 C 30.033333 45 29.316667 45.283333 28.75 45.849998 C 28.183333 46.416667 27.9 47.133334 27.9 48 C 27.9 48.866666 28.183333 49.583333 28.75 50.150002 C 29.316667 50.716667 30.033333 51 30.9 51 Z M 30.9 35.099998 L 52.5 35.099998 C 53.366666 35.099998 54.083333 34.816666 54.650002 34.25 C 55.216667 33.683334 55.5 32.966667 55.5 32.099998 C 55.5 31.233335 55.216667 30.516668 54.650002 29.949997 C 54.083333 29.383331 53.366666 29.099998 52.5 29.099998 L 30.9 29.099998 C 30.033333 29.099998 29.316667 29.383331 28.75 29.949997 C 28.183333 30.516668 27.9 31.233335 27.9 32.099998 C 27.9 32.966667 28.183333 33.683334 28.75 34.25 C 29.316667 34.816666 30.033333 35.099998 30.9 35.099998 Z"/>
</svg>
