<?xml version="1.0" encoding="UTF-8"?>
<!-- Generated by Pixelmator Pro 3.2.3 -->
<svg width="100" height="100" viewBox="0 0 100 100" xmlns="http://www.w3.org/2000/svg" xmlns:xlink="http://www.w3.org/1999/xlink">
    <path id="Path" fill="#d2b48c" stroke="none" d="M 49.807693 90 C 44.294874 90 39.118591 88.942309 34.278847 86.826927 C 29.439103 84.71154 25.192308 81.842949 21.538462 78.221153 C 17.884615 74.599358 15.016025 70.352562 12.932693 65.480766 C 10.849359 60.608973 9.807693 55.448718 9.807693 50 C 9.807693 44.358976 10.865385 39.102564 12.980769 34.230766 C 15.096154 29.358976 18.012821 25.128207 21.73077 21.53846 C 25.448718 17.948718 29.77564 15.128204 34.711536 13.07692 C 39.647434 11.02564 44.967948 10 50.673077 10 C 55.99359 10 61.041667 10.897436 65.817307 12.692307 C 70.592951 14.487178 74.791672 16.971151 78.413467 20.144226 C 82.035258 23.317307 84.919874 27.083333 87.067314 31.442307 C 89.214745 35.801282 90.28846 40.544872 90.28846 45.673077 C 90.28846 53.173077 88.01282 58.974359 83.46154 63.076923 C 78.910255 67.17949 73.205126 69.230774 66.346153 69.230774 L 60.288464 69.230774 C 59.262821 69.230774 58.365386 69.631414 57.596157 70.432693 C 56.826926 71.233973 56.44231 72.147433 56.44231 73.173073 C 56.44231 74.26282 56.826926 75.256409 57.596157 76.153839 C 58.365386 77.05128 58.75 78.333333 58.75 80 C 58.75 81.858973 57.788461 83.990382 55.865383 86.394226 C 53.942305 88.798075 51.923075 90 49.807693 90 Z M 27.211538 53.076923 C 28.621795 53.076923 29.871795 52.548077 30.961538 51.490383 C 32.051282 50.432692 32.596153 49.166667 32.596153 47.692307 C 32.596153 46.217949 32.051282 44.951925 30.961538 43.894234 C 29.871795 42.83654 28.621795 42.307693 27.211538 42.307693 C 25.737179 42.307693 24.471154 42.83654 23.413462 43.894234 C 22.355769 44.951925 21.826923 46.217949 21.826923 47.692307 C 21.826923 49.166667 22.355769 50.432692 23.413462 51.490383 C 24.471154 52.548077 25.737179 53.076923 27.211538 53.076923 Z M 39.423077 36.53846 C 40.833335 36.53846 42.083335 36.009613 43.173077 34.95192 C 44.262819 33.894226 44.80769 32.628202 44.80769 31.153847 C 44.80769 29.679487 44.262819 28.41346 43.173077 27.355766 C 42.083335 26.298078 40.833335 25.769234 39.423077 25.769234 C 37.948719 25.769234 36.682693 26.298078 35.625 27.355766 C 34.567307 28.41346 34.03846 29.679487 34.03846 31.153847 C 34.03846 32.628202 34.567307 33.894226 35.625 34.95192 C 36.682693 36.009613 37.948719 36.53846 39.423077 36.53846 Z M 60.192307 36.53846 C 61.602564 36.53846 62.852564 36.009613 63.942307 34.95192 C 65.032049 33.894226 65.57692 32.628202 65.57692 31.153847 C 65.57692 29.679487 65.032049 28.41346 63.942307 27.355766 C 62.852564 26.298078 61.602564 25.769234 60.192307 25.769234 C 58.717949 25.769234 57.451925 26.298078 56.394234 27.355766 C 55.33654 28.41346 54.807693 29.679487 54.807693 31.153847 C 54.807693 32.628202 55.33654 33.894226 56.394234 34.95192 C 57.451925 36.009613 58.717949 36.53846 60.192307 36.53846 Z M 72.980774 53.076923 C 74.391027 53.076923 75.641027 52.548077 76.730774 51.490383 C 77.820516 50.432692 78.365387 49.166667 78.365387 47.692307 C 78.365387 46.217949 77.820516 44.951925 76.730774 43.894234 C 75.641027 42.83654 74.391027 42.307693 72.980774 42.307693 C 71.506409 42.307693 70.240379 42.83654 69.182686 43.894234 C 68.124997 44.951925 67.596153 46.217949 67.596153 47.692307 C 67.596153 49.166667 68.124997 50.432692 69.182686 51.490383 C 70.240379 52.548077 71.506409 53.076923 72.980774 53.076923 Z"/>
    <path id="Ellipse" fill="#a450a7" fill-rule="evenodd" stroke="none" d="M 46 30.5 C 46 26.910149 43.089851 24 39.5 24 C 35.910149 24 33 26.910149 33 30.5 C 33 34.089851 35.910149 37 39.5 37 C 43.089851 37 46 34.089851 46 30.5 Z"/>
    <path id="path1" fill="#027aff" fill-rule="evenodd" stroke="none" d="M 67 30.5 C 67 26.910149 63.865993 24 60 24 C 56.134007 24 53 26.910149 53 30.5 C 53 34.089851 56.134007 37 60 37 C 63.865993 37 67 34.089851 67 30.5 Z"/>
    <path id="path2" fill="#62ba46" fill-rule="evenodd" stroke="none" d="M 79 47.5 C 79 43.910149 76.089851 41 72.5 41 C 68.910149 41 66 43.910149 66 47.5 C 66 51.089851 68.910149 54 72.5 54 C 76.089851 54 79 51.089851 79 47.5 Z"/>
    <path id="path3" fill="#fe5257" fill-rule="evenodd" stroke="none" d="M 33 48 C 33 44.686291 30.313709 42 27 42 C 23.686291 42 21 44.686291 21 48 C 21 51.313709 23.686291 54 27 54 C 30.313709 54 33 51.313709 33 48 Z"/>
</svg>
