<?xml version="1.0" encoding="UTF-8"?>
<!-- Generated by Pixelmator Pro 3.2.2 -->
<svg width="100" height="100" viewBox="0 0 100 100" xmlns="http://www.w3.org/2000/svg" xmlns:xlink="http://www.w3.org/1999/xlink">
    <path id="Path" fill="#bbbbbb" stroke="none" d="M 18.75 81.25 L 23.333332 81.25 L 69.479164 35.104164 L 64.895836 30.520836 L 18.75 76.666664 Z M 82.708336 30.625 L 69.375 17.291664 L 73.75 12.916672 C 74.930557 11.736109 76.388891 11.145828 78.125 11.145828 C 79.861109 11.145828 81.319443 11.736109 82.5 12.916672 L 87.083328 17.5 C 88.263891 18.680557 88.854172 20.138891 88.854172 21.875 C 88.854172 23.611109 88.263891 25.069443 87.083328 26.25 Z M 78.333328 35 L 25.833332 87.5 L 12.5 87.5 L 12.5 74.166664 L 65 21.666672 Z M 67.1875 32.8125 L 64.895836 30.520836 L 69.479164 35.104164 Z"/>
</svg>
