<?xml version="1.0" encoding="UTF-8"?>
<!-- Generated by Pixelmator Pro 3.2.3 -->
<svg width="100" height="100" viewBox="0 0 100 100" xmlns="http://www.w3.org/2000/svg" xmlns:xlink="http://www.w3.org/1999/xlink">
    <path id="Path" fill="#62ba46" stroke="none" d="M 39.895832 67.708328 L 67.708336 50 L 39.895832 32.291664 Z M 50 91.666664 C 44.305555 91.666664 38.923611 90.572914 33.854168 88.385414 C 28.784723 86.197914 24.357639 83.211805 20.572916 79.427086 C 16.788195 75.642362 13.802084 71.215276 11.614583 66.145828 C 9.427083 61.076388 8.333333 55.694445 8.333333 50 C 8.333333 44.236112 9.427083 38.819445 11.614583 33.75 C 13.802084 28.680552 16.788195 24.270828 20.572916 20.520828 C 24.357639 16.770833 28.784723 13.802086 33.854168 11.614586 C 38.923611 9.427086 44.305555 8.333336 50 8.333336 C 55.763888 8.333336 61.180555 9.427086 66.25 11.614586 C 71.319448 13.802086 75.729172 16.770833 79.479172 20.520828 C 83.229167 24.270828 86.197914 28.680552 88.385414 33.75 C 90.572914 38.819445 91.666664 44.236112 91.666664 50 C 91.666664 55.694445 90.572914 61.076388 88.385414 66.145828 C 86.197914 71.215276 83.229167 75.642362 79.479172 79.427086 C 75.729172 83.211805 71.319448 86.197914 66.25 88.385414 C 61.180555 90.572914 55.763888 91.666664 50 91.666664 Z M 50 85.416664 C 59.861109 85.416664 68.229164 81.961805 75.104164 75.052086 C 81.979164 68.142362 85.416664 59.791667 85.416664 50 C 85.416664 40.138891 81.979164 31.770836 75.104164 24.895836 C 68.229164 18.020836 59.861109 14.583336 50 14.583336 C 40.208333 14.583336 31.857639 18.020836 24.947918 24.895836 C 18.038195 31.770836 14.583333 40.138891 14.583333 50 C 14.583333 59.791667 18.038195 68.142362 24.947918 75.052086 C 31.857639 81.961805 40.208333 85.416664 50 85.416664 Z M 50 50 Z"/>
</svg>
