<?xml version="1.0" encoding="UTF-8"?>
<!-- Generated by Pixelmator Pro 2.4.7 -->
<svg width="100" height="100" viewBox="0 0 100 100" xmlns="http://www.w3.org/2000/svg" xmlns:xlink="http://www.w3.org/1999/xlink">
    <path id="Path" fill="#6e6f71" stroke="none" d="M 50 91.666664 C 44.791667 91.666664 39.913195 90.694443 35.364586 88.75 C 30.815973 86.805557 26.840277 84.131945 23.4375 80.729164 C 20.034723 77.326388 17.361112 73.350695 15.416667 68.802086 C 13.472222 64.253474 12.5 59.375001 12.5 54.166668 L 18.75 54.166668 C 18.75 62.847223 21.788195 70.225695 27.864584 76.302086 C 33.940973 82.378471 41.319445 85.416664 50 85.416664 C 58.680555 85.416664 66.059026 82.378471 72.135414 76.302086 C 78.211805 70.225695 81.25 62.847223 81.25 54.166668 C 81.25 45.486111 78.298612 38.107638 72.395836 32.03125 C 66.493057 25.954859 59.201389 22.916664 50.520832 22.916664 L 48.125 22.916664 L 55.729168 30.520836 L 51.458336 34.895836 L 36.145836 19.583336 L 51.458336 4.270828 L 55.729168 8.541664 L 47.604168 16.666664 L 50 16.666664 C 55.208333 16.666664 60.086805 17.638888 64.635414 19.583336 C 69.184024 21.527779 73.159719 24.201388 76.5625 27.604164 C 79.965281 31.006945 82.638891 34.982641 84.583328 39.53125 C 86.527776 44.079862 87.5 48.958335 87.5 54.166668 C 87.5 59.375001 86.527776 64.253474 84.583328 68.802086 C 82.638891 73.350695 79.965281 77.326388 76.5625 80.729164 C 73.159719 84.131945 69.184024 86.805557 64.635414 88.75 C 60.086805 90.694443 55.208333 91.666664 50 91.666664 Z"/>
</svg>
