<?xml version="1.0" encoding="UTF-8"?>
<!-- Generated by Pixelmator Pro 3.2.3 -->
<svg width="100" height="100" viewBox="0 0 100 100" xmlns="http://www.w3.org/2000/svg" xmlns:xlink="http://www.w3.org/1999/xlink">
    <g id="Side">
        <path id="maillockFILL1wght400GRAD0opsz48-copy" fill="#fcb827" stroke="none" d="M 74.34211 91.776314 C 73.114037 91.776314 72.039474 91.315788 71.118423 90.394737 C 70.197365 89.473686 69.736839 88.399124 69.736839 87.171051 L 69.736839 71.381577 C 69.736839 70.153503 70.241226 69.078949 71.25 68.157898 C 72.258774 67.236847 73.508781 66.776314 75 66.776314 L 75 60.855263 C 75 58.135967 75.964912 55.811405 77.894737 53.88158 C 79.82457 51.951759 82.149124 50.986843 84.868423 50.986843 C 87.587723 50.986843 89.912277 51.951759 91.84211 53.88158 C 93.771927 55.811405 94.736839 58.135967 94.736839 60.855263 L 94.736839 66.776314 C 96.228065 66.776314 97.478065 67.236847 98.486839 68.157898 C 99.495613 69.078949 100 70.153503 100 71.381577 L 100 87.171051 C 100 88.399124 99.539467 89.473686 98.618423 90.394737 C 97.697372 91.315788 96.62281 91.776314 95.394737 91.776314 Z M 78.947372 66.776314 L 90.789474 66.776314 L 90.789474 60.855263 C 90.789474 59.188591 90.219299 57.785088 89.078941 56.644737 C 87.938591 55.504387 86.535088 54.934212 84.868423 54.934212 C 83.201759 54.934212 81.798241 55.504387 80.657898 56.644737 C 79.517548 57.785088 78.947372 59.188591 78.947372 60.855263 Z"/>
        <path id="Path" fill="#929292" fill-rule="evenodd" stroke="none" d="M 18.75 91.666664 C 17.083336 91.666664 15.625813 90.990395 14.375814 89.63623 C 13.125815 88.282059 12.5 86.806358 12.5 85.209145 L 12.5 33.959961 C 11.527779 33.821075 10.591092 33.126633 9.688314 31.876625 C 8.785538 30.626633 8.333333 29.27002 8.333333 27.811684 L 8.333333 14.583336 C 8.333333 12.986115 8.959148 11.546761 10.209148 10.262047 C 11.459146 8.977325 12.916668 8.333336 14.583333 8.333336 L 85.416664 8.333336 C 87.013885 8.333336 88.453239 8.977325 89.737953 10.262047 C 91.022675 11.546761 91.666664 12.986115 91.666664 14.583336 L 91.666664 27.811684 C 91.666664 29.27002 91.214462 30.626633 90.311684 31.876625 C 89.408913 33.126633 88.472221 33.821075 87.5 33.959961 L 87.5 45.833332 L 81.25 45.833332 L 81.25 34.061684 L 18.75 34.061684 L 18.75 85.416664 L 64.583336 85.416664 L 65.065254 88.456665 L 66.666664 91.666664 L 18.75 91.666664 Z M 40.625 55.936687 C 39.722225 55.936687 38.977325 55.643993 38.387043 55.053711 C 37.796768 54.463432 37.5 53.714462 37.5 52.811687 C 37.5 51.908909 37.796768 51.164013 38.387043 50.57373 C 38.977325 49.983456 39.722225 49.686687 40.625 49.686687 L 59.375 49.686687 C 60.277775 49.686687 61.022675 49.983456 61.612957 50.57373 C 62.203232 51.164013 62.5 51.908909 62.5 52.811687 C 62.5 53.714462 62.203232 54.463432 61.612957 55.053711 C 61.022675 55.643993 60.277775 55.936687 59.375 55.936687 L 40.625 55.936687 Z M 14.583333 27.811684 L 85.416664 27.811684 L 85.416664 14.583336 L 14.583333 14.583336 L 14.583333 27.811684 Z"/>
    </g>
</svg>
