<?xml version="1.0" encoding="UTF-8"?>
<!-- Generated by Pixelmator Pro 3.2.3 -->
<svg width="100" height="100" viewBox="0 0 100 100" xmlns="http://www.w3.org/2000/svg" xmlns:xlink="http://www.w3.org/1999/xlink">
    <g id="Side-copy">
        <path id="managehistoryFILL0wght400GRAD0opsz48" fill="#d49941" stroke="none" d="M 76.890488 84.504478 C 75.636757 84.156219 74.452675 83.686073 73.338242 83.094032 C 72.223816 82.501984 71.179039 81.718407 70.203918 80.743286 L 65.606911 81.788063 C 65.258652 81.857712 64.910393 81.840302 64.562134 81.735825 C 64.213875 81.63134 63.970089 81.404976 63.830784 81.056717 L 62.47258 78.653732 C 62.263622 78.305473 62.193966 77.974632 62.263618 77.661194 C 62.333271 77.347763 62.507401 77.051743 62.786007 76.773132 L 66.756157 73.01194 C 66.547203 72.176117 66.442726 71.305473 66.442726 70.400002 C 66.442726 69.49453 66.547203 68.623878 66.756157 67.788055 L 62.786007 64.026871 C 62.507401 63.74826 62.333271 63.452236 62.263618 63.138802 C 62.193966 62.825371 62.263622 62.494526 62.47258 62.146267 L 63.830784 59.743279 C 63.970089 59.39502 64.213875 59.168655 64.562134 59.064182 C 64.910393 58.959702 65.258652 58.942287 65.606911 59.01194 L 70.203918 60.056717 C 71.179039 59.081593 72.223816 58.298008 73.338242 57.705971 C 74.452675 57.11393 75.636757 56.64378 76.890488 56.295525 L 77.726311 50.758205 C 77.795959 50.409946 77.987503 50.096512 78.300934 49.817905 C 78.614372 49.539303 78.945213 49.400002 79.293472 49.400002 L 82.218849 49.400002 C 82.567108 49.400002 82.897957 49.539303 83.211388 49.817905 C 83.524818 50.096512 83.716362 50.409946 83.786018 50.758205 L 84.621841 56.295525 C 85.875565 56.64378 87.059639 57.11393 88.174072 57.705971 C 89.288506 58.298008 90.333282 59.081593 91.308403 60.056717 L 95.905411 59.01194 C 96.25367 58.942287 96.601929 58.959702 96.950188 59.064182 C 97.298447 59.168655 97.542229 59.39502 97.681541 59.743279 L 99.039742 62.146267 C 99.248695 62.494526 99.318352 62.825371 99.248703 63.138802 C 99.179047 63.452236 99.004921 63.74826 98.726318 64.026871 L 94.756165 67.788055 C 94.965126 68.623878 95.069603 69.49453 95.069603 70.400002 C 95.069603 71.305473 94.965126 72.176117 94.756165 73.01194 L 98.726318 76.773132 C 99.004921 77.051743 99.179047 77.347763 99.248703 77.661194 C 99.318352 77.974632 99.248695 78.305473 99.039742 78.653732 L 97.681541 81.056717 C 97.542229 81.404976 97.298447 81.63134 96.950188 81.735825 C 96.601929 81.840302 96.25367 81.857712 95.905411 81.788063 L 91.308403 80.743286 C 90.333282 81.718407 89.288506 82.501984 88.174072 83.094032 C 87.059639 83.686073 85.875565 84.156219 84.621841 84.504478 L 83.786018 90.041786 C 83.716362 90.390045 83.524818 90.703484 83.211388 90.982086 C 82.897957 91.260696 82.567108 91.400002 82.218849 91.400002 L 79.293472 91.400002 C 78.945213 91.400002 78.614372 91.260696 78.300934 90.982086 C 77.987503 90.703484 77.795959 90.390045 77.726311 90.041786 Z M 80.756157 78.758209 C 83.263626 78.758209 85.283524 77.992043 86.815857 76.459702 C 88.348198 74.927361 89.114365 72.907463 89.114365 70.400002 C 89.114365 67.89254 88.348198 65.872643 86.815857 64.340302 C 85.283524 62.807964 83.263626 62.041794 80.756157 62.041794 C 78.248695 62.041794 76.228798 62.807964 74.696457 64.340302 C 73.164116 65.872643 72.397942 67.89254 72.397942 70.400002 C 72.397942 72.907463 73.164116 74.927361 74.696457 76.459702 C 76.228798 77.992035 78.248688 78.758209 80.756157 78.758209 Z"/>
        <path id="path1" fill="#929292" fill-rule="evenodd" stroke="none" d="M 18.75 91.666664 C 17.083336 91.666664 15.625813 90.990395 14.375814 89.63623 C 13.125815 88.282059 12.5 86.806358 12.5 85.209145 L 12.5 33.959961 C 11.527779 33.821075 10.591092 33.126633 9.688314 31.876625 C 8.785538 30.626633 8.333333 29.27002 8.333333 27.811684 L 8.333333 14.583336 C 8.333333 12.986115 8.959148 11.546761 10.209148 10.262047 C 11.459146 8.977325 12.916668 8.333336 14.583333 8.333336 L 85.416664 8.333336 C 87.013885 8.333336 88.453239 8.977325 89.737953 10.262047 C 91.022675 11.546761 91.666664 12.986115 91.666664 14.583336 L 91.666664 27.811684 C 91.666664 29.27002 91.214462 30.626633 90.311684 31.876625 C 89.408913 33.126633 88.472221 33.821075 87.5 33.959961 L 87.402702 48.107269 L 85.696068 43.65057 L 81.138649 43.686245 L 81.25 34.061684 L 18.75 34.061684 L 18.75 85.416664 L 60.092403 85.500633 L 64.709129 86.501762 L 68.182457 86.244354 L 72 89 L 72.629715 91.642159 L 18.75 91.666664 Z M 40.625 55.936687 C 39.722225 55.936687 38.977325 55.643993 38.387043 55.053711 C 37.796768 54.463432 37.5 53.714462 37.5 52.811687 C 37.5 51.908909 37.796768 51.164013 38.387043 50.57373 C 38.977325 49.983456 39.722225 49.686687 40.625 49.686687 L 59.375 49.686687 C 60.277775 49.686687 61.022675 49.983456 61.612957 50.57373 C 62.203232 51.164013 62.5 51.908909 62.5 52.811687 C 62.5 53.714462 62.203232 54.463432 61.612957 55.053711 C 61.022675 55.643993 60.277775 55.936687 59.375 55.936687 L 40.625 55.936687 Z M 14.583333 27.811684 L 85.416664 27.811684 L 85.416664 14.583336 L 14.583333 14.583336 L 14.583333 27.811684 Z"/>
    </g>
</svg>
