<?xml version="1.0" encoding="UTF-8"?>
<!-- Generated by Pixelmator Pro 3.2.3 -->
<svg width="100" height="100" viewBox="0 0 100 100" xmlns="http://www.w3.org/2000/svg" xmlns:xlink="http://www.w3.org/1999/xlink">
    <path id="Path-copy" fill="#929292" stroke="none" d="M 18.75 91.666664 C 17.083332 91.666664 15.625 90.989578 14.375 89.635422 C 13.125 88.28125 12.5 86.805557 12.5 85.208336 L 12.5 33.958328 C 11.527777 33.819443 10.590277 33.125 9.6875 31.875 C 8.784723 30.625 8.333333 29.270844 8.333333 27.8125 L 8.333333 14.583336 C 8.333333 12.986115 8.958334 11.545135 10.208334 10.260414 C 11.458333 8.9757 12.916666 8.333336 14.583333 8.333336 L 85.416664 8.333336 C 87.013885 8.333336 88.454865 8.9757 89.739586 10.260414 C 91.0243 11.545135 91.666664 12.986115 91.666664 14.583336 L 91.666664 27.8125 C 91.666664 29.270844 91.215279 30.625 90.3125 31.875 C 89.409721 33.125 88.472221 33.819443 87.5 33.958328 L 87.5 85.208336 C 87.5 86.805557 86.857635 88.28125 85.572922 89.635422 C 84.2882 90.989578 82.847221 91.666664 81.25 91.666664 Z M 18.75 34.0625 L 18.75 85.416664 L 81.25 85.416664 L 81.25 34.0625 Z M 85.416664 27.8125 L 85.416664 14.583336 L 14.583333 14.583336 L 14.583333 27.8125 Z M 40.625 55.9375 L 59.375 55.9375 C 60.277775 55.9375 61.024307 55.642357 61.614586 55.052082 C 62.204861 54.461803 62.5 53.715275 62.5 52.8125 C 62.5 51.909725 62.204861 51.163197 61.614586 50.572914 C 61.024307 49.982639 60.277775 49.6875 59.375 49.6875 L 40.625 49.6875 C 39.722225 49.6875 38.975693 49.982639 38.385414 50.572914 C 37.795139 51.163197 37.5 51.909725 37.5 52.8125 C 37.5 53.715275 37.795139 54.461803 38.385414 55.052082 C 38.975693 55.642357 39.722225 55.9375 40.625 55.9375 Z M 18.75 85.416664 L 18.75 34.0625 L 18.75 85.416664 Z"/>
</svg>
