<?xml version="1.0" encoding="UTF-8"?>
<!-- Generated by Pixelmator Pro 3.2.3 -->
<svg width="96" height="96" viewBox="0 0 96 96" xmlns="http://www.w3.org/2000/svg" xmlns:xlink="http://www.w3.org/1999/xlink">
    <path id="Path" fill="#929292" stroke="none" d="M 54.599998 88 L 41.400002 88 C 40.666667 88 40.016666 87.766668 39.450001 87.300003 C 38.883333 86.833333 38.533333 86.233332 38.400002 85.5 L 36.799999 75.400002 C 35.533334 74.933332 34.200001 74.299998 32.799999 73.5 C 31.4 72.700002 30.166667 71.866669 29.1 71 L 19.799999 75.300003 C 19.066667 75.633336 18.333334 75.683334 17.6 75.449997 C 16.866667 75.216665 16.3 74.733332 15.9 74 L 9.3 62.299999 C 8.9 61.633333 8.8 60.933333 9 60.200001 C 9.2 59.466666 9.6 58.866666 10.2 58.400002 L 18.799999 52.099998 C 18.666667 51.5 18.583333 50.816667 18.549999 50.049999 C 18.516666 49.283334 18.5 48.600001 18.5 48 C 18.5 47.399999 18.516666 46.716666 18.549999 45.950001 C 18.583333 45.183333 18.666667 44.5 18.799999 43.900002 L 10.2 37.599998 C 9.6 37.133334 9.2 36.533334 9 35.799999 C 8.8 35.066667 8.9 34.366667 9.3 33.700001 L 15.9 22 C 16.3 21.266668 16.866667 20.783335 17.6 20.550003 C 18.333334 20.316666 19.066667 20.366664 19.799999 20.699997 L 29.1 25 C 30.166667 24.133331 31.4 23.299998 32.799999 22.5 C 34.200001 21.700002 35.533334 21.100001 36.799999 20.699997 L 38.400002 10.5 C 38.533333 9.766668 38.883333 9.166667 39.450001 8.699997 C 40.016666 8.233332 40.666667 8 41.400002 8 L 54.599998 8 C 55.333333 8 55.983334 8.233332 56.549999 8.699997 C 57.116667 9.166667 57.466667 9.766668 57.599998 10.5 L 59.200001 20.599998 C 60.466666 21.066668 61.816666 21.683334 63.25 22.449997 C 64.683334 23.216665 65.900002 24.066666 66.900002 25 L 76.199997 20.699997 C 76.933334 20.366664 77.666669 20.316666 78.400002 20.550003 C 79.133334 20.783335 79.699999 21.266668 80.099998 22 L 86.699997 33.599998 C 87.100001 34.266665 87.21667 34.983332 87.050003 35.75 C 86.883336 36.516668 86.46667 37.133334 85.800003 37.599998 L 77.199997 43.700001 C 77.333333 44.366667 77.416667 45.083333 77.449997 45.849998 C 77.483332 46.616666 77.5 47.333333 77.5 48 C 77.5 48.666667 77.483332 49.366666 77.449997 50.099998 C 77.416667 50.833333 77.333333 51.533334 77.199997 52.200001 L 85.800003 58.400002 C 86.399999 58.866666 86.799998 59.466666 87 60.200001 C 87.200002 60.933333 87.100001 61.633333 86.699997 62.299999 L 80.099998 74 C 79.699999 74.733332 79.133334 75.216665 78.400002 75.449997 C 77.666669 75.683334 76.933334 75.633336 76.199997 75.300003 L 66.900002 71 C 65.833336 71.866669 64.616669 72.71667 63.25 73.550003 C 61.883334 74.383336 60.533334 75.000003 59.200001 75.400002 L 57.599998 85.5 C 57.466667 86.233332 57.116667 86.833333 56.549999 87.300003 C 55.983334 87.766668 55.333333 88 54.599998 88 Z M 48 61 C 51.600001 61 54.666668 59.733334 57.200001 57.200001 C 59.733334 54.666668 61 51.600001 61 48 C 61 44.399999 59.733334 41.333332 57.200001 38.799999 C 54.666668 36.266666 51.600001 35 48 35 C 44.399999 35 41.333332 36.266666 38.799999 38.799999 C 36.266666 41.333332 35 44.399999 35 48 C 35 51.600001 36.266666 54.666668 38.799999 57.200001 C 41.333332 59.733334 44.399999 61 48 61 Z"/>
</svg>
