<?xml version="1.0" encoding="UTF-8"?>
<!-- Generated by Pixelmator Pro 2.4.7 -->
<svg width="256" height="256" viewBox="0 0 256 256" xmlns="http://www.w3.org/2000/svg" xmlns:xlink="http://www.w3.org/1999/xlink">
    <g id="layer1">
        <g id="g3090">
            <path id="path2994" fill="#0f824e" stroke="none" d="M 251.871536 133.515198 C 251.871536 187.296921 196.354843 230.89563 127.871529 230.89563 C 59.388226 230.89563 3.871532 187.296921 3.871532 133.515198 C 3.871532 79.733459 59.388226 36.13475 127.871529 36.13475 C 196.354843 36.13475 251.871536 79.733459 251.871536 133.515198 Z"/>
            <path id="path3027" fill="#000000" stroke="none" d="M 127.968002 31.959381 C 127.966988 31.959381 127.695068 32.022202 127.6521 32.054153 C 127.609184 32.08609 127.604591 32.100433 127.588921 32.11734 C 127.557686 32.151245 127.540085 32.170868 127.525742 32.19104 C 127.496971 32.231506 127.491142 32.270187 127.462563 32.317398 C 127.405296 32.411957 127.333977 32.560623 127.24144 32.728073 C 127.056358 33.062943 126.779404 33.527817 126.441162 34.17067 C 125.764679 35.456375 124.772652 37.369293 123.524384 39.804153 C 121.027832 44.673889 117.448311 51.701981 113.057671 60.390091 C 104.27639 77.766312 92.237236 101.723801 79.056656 128.086761 C 65.87587 154.450165 54.061825 178.341003 45.61372 195.572845 C 41.389664 204.188751 37.992867 211.151611 35.715622 215.927124 C 34.577 218.31488 33.715172 220.133865 33.156857 221.371063 C 32.877697 221.989639 32.672283 222.464783 32.546124 222.782074 C 32.483044 222.94072 32.45023 223.050339 32.419765 223.161148 C 32.40456 223.216583 32.378956 223.269211 32.388176 223.424408 C 32.390415 223.463226 32.390636 223.507523 32.419765 223.582352 C 32.448929 223.657135 32.63937 223.834167 32.640892 223.835068 C 32.642479 223.835068 32.908009 223.915039 32.998909 223.898239 C 33.089809 223.881348 33.1511 223.857712 33.18845 223.835068 C 33.289951 223.773621 33.401974 223.700027 33.609642 223.550751 C 33.81731 223.401489 34.083683 223.202179 34.441505 222.940033 C 35.157143 222.415771 36.170612 221.639648 37.442524 220.697159 C 39.986351 218.812195 43.564598 216.148697 47.940826 212.883972 C 56.693275 206.354553 68.605415 197.477264 81.520653 187.791245 L 128.168076 152.768829 L 174.615417 187.791245 C 187.475937 197.480713 199.310333 206.386108 208.026764 212.915573 C 212.384964 216.180283 215.970215 218.84462 218.503998 220.728745 C 219.770905 221.670822 220.791931 222.416306 221.50502 222.940033 C 221.861572 223.201874 222.129684 223.401718 222.336884 223.550751 C 222.544067 223.699799 222.651077 223.771271 222.758087 223.835068 C 222.796082 223.857605 222.85553 223.882263 222.947617 223.898239 C 223.039719 223.914124 223.304108 223.835999 223.305634 223.835068 C 223.306641 223.835068 223.498276 223.656281 223.526764 223.582352 C 223.555222 223.508392 223.556107 223.462936 223.558334 223.424408 C 223.567566 223.270233 223.541855 223.248291 223.526764 223.192749 C 223.496338 223.081665 223.463501 222.972565 223.400406 222.81366 C 223.274231 222.49585 223.068832 222.021698 222.789673 221.402664 C 222.231339 220.164612 221.369537 218.315628 220.230911 215.927124 C 217.953659 211.150101 214.556854 204.189911 210.332809 195.572845 C 201.884689 178.338715 190.070663 154.450165 176.889877 128.086761 C 163.70929 101.723801 151.670135 77.766312 142.888855 60.390091 C 138.498215 51.701981 134.918701 44.673889 132.42215 39.804153 C 131.173874 37.369293 130.181839 35.456375 129.505371 34.17067 C 129.16713 33.527817 128.890167 33.062943 128.705093 32.728073 C 128.612595 32.560623 128.541199 32.411926 128.483963 32.317398 C 128.455383 32.270187 128.44957 32.231506 128.420792 32.19104 C 128.406433 32.170883 128.388855 32.15123 128.357605 32.11734 C 128.341934 32.100418 128.337357 32.086136 128.294434 32.054153 C 128.251511 32.022217 127.969101 31.959381 127.968002 31.959381 Z M 128.199661 93.706665 L 142.278122 117.398926 C 150.252243 130.83432 158.018936 143.95607 159.536606 146.556183 L 161.611008 150.115295 L 145.542389 144.576569 L 128.168076 138.553467 L 127.999588 138.521912 L 127.841637 138.553467 L 110.26725 144.702942 C 102.34697 147.466614 98.003777 148.933472 95.862358 149.441376 C 95.327003 149.568359 94.934433 149.648499 94.683014 149.662506 C 94.588669 149.667633 94.633827 149.669678 94.588242 149.662506 C 94.634956 149.557159 94.690781 149.468628 94.809372 149.283432 C 95.24221 148.607452 97.400543 145.023315 100.600815 139.711761 C 103.801079 134.400208 108.030472 127.380112 112.478531 119.957687 L 128.199661 93.706665 Z"/>
        </g>
    </g>
</svg>
